# 3ds Max Wavefront OBJ Exporter v0.99 - (c)2007 guruware
# File Created: 09.04.2026 19:57:40

mtllib DropsShip_PackedUVW.mtl

#
# object Target
#

v  794.0143 62.2329 366.0626
v  513.5013 252.0727 428.5709
v  513.5013 -47.7671 370.4491
v  -424.0358 -47.7672 370.4492
v  -188.3869 -47.7672 370.4492
v  -188.3870 252.0726 428.5709
v  -424.0358 252.0725 428.5710
v  51.1674 252.0726 428.5710
v  51.1675 -47.7671 370.4492
v  51.1674 -73.5161 343.0028
v  -188.3869 -73.5162 343.0028
v  51.1674 252.0726 318.9897
v  -188.3870 252.0726 318.9897
v  -188.3870 342.2328 318.9897
v  51.1674 342.2328 318.9897
v  -682.9999 252.0725 318.9898
v  -682.9998 342.2327 318.9898
v  -424.0359 342.2327 318.9898
v  -424.0359 252.0725 318.9898
v  -188.3869 -47.7672 318.9897
v  51.1674 -47.7671 318.9897
v  -424.0359 463.6809 327.3492
v  -188.3870 463.6810 327.3491
v  -188.3870 463.6809 200.0000
v  -424.0359 463.6809 200.0000
v  794.0143 62.2329 200.1860
v  883.8048 129.3495 370.4492
v  513.5013 463.6810 199.9999
v  513.5013 463.6810 327.3490
v  883.8048 267.1806 307.4759
v  883.8047 267.1806 199.9999
v  -682.9998 -47.7673 318.9898
v  -682.9998 -62.1536 318.9898
v  -682.9998 -73.5163 343.0028
v  -682.9998 -47.7673 370.4494
v  907.9418 129.3495 199.9998
v  907.9418 279.0407 199.9998
v  883.8047 202.3410 199.9999
v  883.8047 129.3495 199.9999
v  513.5013 480.4310 200.0000
v  -188.3870 480.4309 200.0000
v  -424.0359 480.4308 200.0000
v  -682.9999 463.6809 200.0000
v  -716.0397 480.4308 200.0001
v  -716.0396 342.2327 200.0001
v  -682.9999 342.2327 200.0000
v  -188.3870 323.1068 428.5710
v  51.1674 323.1068 428.5709
v  51.1674 391.1047 384.3027
v  -188.3870 391.1046 384.3027
v  469.5082 252.0727 199.9999
v  469.5081 252.0727 92.3157
v  469.5082 -47.7671 92.3157
v  469.5083 -47.7671 199.9999
v  549.4833 222.2329 92.3157
v  549.4832 -17.7671 92.3157
v  907.9418 142.2329 169.8535
v  907.9418 262.2329 169.8535
v  886.5031 162.2329 144.3516
v  886.5031 237.2329 144.3516
v  883.8048 202.3410 318.9896
v  883.8048 248.7742 336.1158
v  883.8048 234.3335 343.6123
v  513.5013 -73.5161 343.0027
v  773.5619 22.2329 332.7484
v  513.5013 391.1047 384.3026
v  511.0147 446.9450 355.5474
v  51.1674 446.7820 355.2349
v  -188.3870 446.7820 355.2350
v  513.5013 323.1069 428.5709
v  883.8048 192.6065 370.4492
v  -626.2814 -47.7673 318.9898
v  883.8048 129.3495 318.9896
v  864.8258 193.0548 301.8131
v  864.8258 138.6357 301.8131
v  864.8257 138.6357 221.6943
v  864.8257 193.0548 221.6943
v  883.8047 135.1348 215.2157
v  883.8048 135.1348 308.2917
v  883.8048 196.5557 308.2917
v  883.8047 196.5557 215.2157
v  773.5618 22.2329 199.9999
v  -684.5757 385.1589 157.0739
v  -684.5757 437.5046 157.0738
v  -684.5757 437.5046 -157.0735
v  -684.5757 385.1589 -157.0736
v  773.5618 22.2329 -199.1546
v  513.5013 -73.5161 199.9999
v  513.5013 -73.5161 -200.0001
v  907.9418 142.2329 -169.8536
v  907.9418 129.3495 -199.9998
v  -706.8344 439.8719 331.9842
v  -706.8345 366.0416 223.8090
v  -706.8344 366.0416 342.7988
v  -706.8344 379.0724 363.7261
v  469.5081 342.2328 318.9897
v  469.5082 252.0727 318.9897
v  469.5082 -47.7671 318.9897
v  469.5082 342.2328 199.9999
v  -716.0396 342.2327 -199.9998
v  -682.9999 342.2327 -199.9998
v  886.5031 237.2329 -144.3517
v  907.9418 262.2329 -169.8536
v  -188.3870 342.2328 200.0000
v  -424.0358 342.2327 200.0000
v  -424.0359 342.2327 -199.9998
v  -188.3871 342.2328 -199.9998
v  -424.0359 -47.7672 318.9898
v  51.1674 342.2328 199.9999
v  51.1673 342.2328 -199.9998
v  469.5081 342.2328 -199.9998
v  51.1674 -73.5161 -200.0000
v  51.1674 -73.5161 200.0000
v  -188.3869 -73.5162 200.0000
v  -188.3870 -73.5162 -200.0000
v  -424.0358 -73.5162 343.0028
v  51.1674 463.6810 327.3490
v  51.1673 463.6810 200.0000
v  -682.9999 463.6809 327.3492
v  51.1673 480.4309 200.0000
v  -682.9998 323.1067 428.5711
v  -424.0358 323.1068 428.5711
v  -424.0359 391.1046 384.3027
v  -682.9998 391.1045 384.3028
v  -424.0359 446.7819 355.2350
v  -682.9999 446.7819 355.2350
v  51.1673 480.4309 -199.9999
v  513.5013 480.4310 -200.0000
v  -188.3871 480.4309 -199.9999
v  -424.0359 480.4308 -199.9998
v  -716.0397 480.4308 -199.9998
v  -682.9998 252.0725 428.5711
v  -424.0359 -47.7672 -200.0000
v  -424.0359 -47.7672 200.0000
v  -188.3869 -47.7672 200.0000
v  -188.3870 -47.7672 -200.0000
v  794.0142 62.2329 -366.0626
v  513.5012 252.0727 -428.5708
v  883.8046 129.3495 -370.4492
v  -424.0359 -47.7672 -370.4491
v  -424.0359 252.0725 -428.5708
v  -188.3870 252.0726 -428.5708
v  -188.3870 -47.7672 -370.4490
v  513.5013 -47.7671 -370.4491
v  51.1674 -47.7671 -370.4492
v  51.1673 252.0726 -428.5709
v  51.1674 -73.5161 -343.0026
v  -188.3870 -73.5162 -343.0026
v  51.1674 252.0726 -318.9896
v  51.1673 342.2328 -318.9896
v  -188.3871 342.2328 -318.9896
v  -188.3870 252.0726 -318.9896
v  -683.0001 252.0725 -318.9895
v  -424.0359 252.0725 -318.9896
v  -424.0359 342.2327 -318.9896
v  -682.9999 342.2327 -318.9895
v  -188.3870 -47.7672 -318.9896
v  51.1674 -47.7671 -318.9896
v  -188.3871 463.6809 -199.9998
v  -188.3871 463.6810 -327.3489
v  -424.0359 463.6809 -327.3489
v  -424.0359 463.6809 -199.9998
v  513.5013 463.6810 -199.9999
v  883.8047 267.1806 -199.9999
v  883.8046 267.1806 -307.4759
v  513.1597 463.7660 -327.3716
v  -706.8347 -34.7573 -350.8122
v  -706.8346 -34.7573 -342.7985
v  -706.8347 252.0725 -342.7985
v  -706.8346 252.0727 -404.7618
v  883.8047 129.3495 -199.9999
v  883.8047 202.3410 -199.9999
v  907.9418 279.0407 -199.9998
v  -682.9999 463.6809 -199.9998
v  -188.3871 323.1068 -428.5708
v  -188.3871 391.1046 -384.3025
v  51.1673 391.1047 -384.3025
v  51.1673 323.1068 -428.5709
v  469.5081 252.0727 -199.9998
v  469.5082 -47.7670 -200.0001
v  469.5082 -47.7671 -92.3156
v  469.5081 252.0727 -92.3156
v  549.4832 -17.7671 -92.3157
v  549.4833 222.2329 -92.3157
v  886.5031 162.2329 -144.3517
v  883.8046 202.3410 -318.9897
v  883.8046 248.7742 -336.1158
v  773.5617 22.2329 -332.7485
v  513.5013 -73.5161 -343.0027
v  513.5012 391.1047 -384.3026
v  511.0147 446.9450 -355.5473
v  883.8046 234.3335 -343.6124
v  -188.3871 446.7820 -355.2347
v  51.1673 446.7820 -355.2347
v  883.8046 192.6065 -370.4492
v  513.5012 323.1069 -428.5708
v  883.8046 129.3495 -318.9897
v  864.8257 193.0548 -301.8132
v  864.8257 193.0548 -221.6943
v  864.8257 138.6357 -221.6943
v  864.8257 138.6357 -301.8132
v  883.8046 135.1348 -308.2917
v  883.8047 135.1348 -215.2158
v  883.8046 196.5557 -308.2917
v  883.8047 196.5557 -215.2158
v  -625.9045 -47.7673 -200.0000
v  -625.9045 -47.7673 200.0000
v  51.1674 -47.7671 200.0000
v  51.1674 -47.7671 -200.0000
v  -682.9999 -47.7673 -318.9895
v  -626.0101 -47.7673 -318.9895
v  -706.8346 439.8719 -331.9839
v  -706.8345 366.0416 -223.8088
v  -706.8345 439.8719 -223.8088
v  469.5081 342.2328 -318.9896
v  469.5081 252.0727 -318.9896
v  469.5081 -47.7671 -318.9896
v  -424.0358 -73.5162 200.0000
v  -424.0359 -73.5162 -200.0000
v  -424.0359 -47.7672 -318.9896
v  -424.0359 -73.5162 -343.0026
v  51.1673 463.6810 -327.3489
v  51.1673 463.6810 -199.9999
v  -683.0000 463.6809 -327.3488
v  -682.9999 323.1067 -428.5708
v  -682.9999 391.1045 -384.3026
v  -424.0360 391.1046 -384.3026
v  -424.0359 323.1068 -428.5708
v  -683.0000 446.7819 -355.2347
v  -424.0359 446.7819 -355.2348
v  -682.9999 -47.7673 -370.4492
v  -682.9999 252.0725 -428.5708
v  -682.9999 -73.5163 -343.0026
v  -682.9998 -73.5163 -200.0000
v  -682.9998 -73.5163 200.0000
v  -682.9998 -62.1536 200.0000
v  -682.9998 -62.1536 -200.0000
v  -682.9999 -73.5163 -318.9895
v  -682.9999 -62.1536 -318.9895
v  -682.9998 -73.5163 318.9898
v  -706.8346 252.0725 342.7988
v  -706.8344 316.0394 404.7622
v  -706.8346 379.0724 -363.7258
v  -706.8346 316.0394 -404.7618
v  -706.8346 366.0416 -342.7985
v  -706.8344 -34.7602 342.7988
v  -706.8345 -34.7602 350.8125
v  -706.8344 252.0727 404.7622
v  -706.8345 439.8719 223.8090
v  -724.3280 350.5211 191.7117
v  -724.3281 472.1424 191.7116
v  -724.3281 461.3135 180.8828
v  -724.3280 361.3499 180.8828
v  -724.3280 350.5211 -191.7114
v  -724.3280 361.3499 -180.8825
v  -724.3281 472.1424 -191.7114
v  -724.3281 461.3135 -180.8825
v  -695.3977 451.2963 338.9074
v  -695.3979 451.2963 -338.9071
v  -449.0192 308.9450 -407.3676
v  -421.6259 356.5628 -365.5036
v  -421.6259 356.5627 -476.8388
v  -449.0192 308.9450 -521.2989
v  -395.3335 356.5628 -365.5036
v  -395.3335 356.5628 -476.8389
v  -395.3335 308.9452 -521.2989
v  -395.3336 382.7205 -365.5036
v  -395.3336 382.7205 -488.3930
v  -395.3335 308.9452 -546.3597
v  -312.8853 382.7206 -365.5036
v  -312.8854 382.7206 -488.3930
v  -259.1995 308.9454 -407.3676
v  -259.1996 308.9454 -521.2989
v  -286.5929 356.5630 -476.8388
v  -286.5929 356.5630 -365.5036
v  -312.8853 356.5630 -476.8388
v  -312.8853 356.5630 -365.5036
v  -312.8853 308.9453 -521.2989
v  -312.8853 308.9453 -546.3597
v  -449.0190 308.9449 407.3676
v  -449.0190 308.9449 521.2989
v  -421.6259 356.5627 476.8388
v  -421.6259 356.5627 365.5036
v  -395.3334 356.5627 476.8388
v  -395.3334 356.5628 365.5036
v  -395.3333 308.9451 521.2989
v  -395.3335 382.7204 488.3930
v  -395.3335 382.7205 365.5036
v  -395.3333 308.9451 546.3597
v  -312.8853 382.7207 488.3930
v  -312.8853 382.7207 365.5036
v  -259.1993 308.9456 407.3676
v  -286.5928 356.5631 365.5036
v  -286.5928 356.5631 476.8387
v  -259.1993 308.9456 521.2989
v  -312.8853 356.5630 365.5036
v  -312.8853 356.5630 476.8388
v  -312.8851 308.9454 521.2989
v  -312.8851 308.9454 546.3597
v  -600.9490 -72.3161 515.0060
v  -651.1827 -72.3162 464.7722
v  -479.6740 -72.3158 464.7722
v  -529.9078 -72.3159 515.0060
v  -608.5342 -66.1134 533.3181
v  -608.5342 -33.3435 533.3181
v  -669.4949 -33.3437 472.3572
v  -669.4949 -66.1135 472.3573
v  -669.4949 -33.3437 386.1457
v  -669.4948 -66.1135 386.1457
v  -608.5340 -33.3435 325.1849
v  -608.5339 -66.1134 325.1849
v  -522.3224 -66.1132 325.1850
v  -522.3224 -33.3434 325.1850
v  -461.3618 -33.3432 386.1458
v  -461.3617 -66.1131 386.1458
v  -461.3619 -33.3432 472.3574
v  -461.3619 -66.1131 472.3575
v  -522.3227 -33.3433 533.3182
v  -522.3226 -66.1132 533.3182
v  -480.0312 -27.1405 464.7722
v  -651.5399 -27.1409 464.7721
v  -601.3062 -27.1408 515.0060
v  -530.2650 -27.1406 515.0060
v  -479.6739 -72.3158 393.7310
v  -529.9075 -72.3160 343.4972
v  -600.9488 -72.3161 343.4971
v  -651.1826 -72.3162 393.7308
v  -651.5399 -27.1409 393.7308
v  -601.3061 -27.1408 343.4971
v  -530.2648 -27.1406 343.4972
v  -480.0312 -27.1405 393.7310
v  -479.6741 -72.3735 -464.7721
v  -651.1829 -72.3737 -464.7720
v  -600.9492 -72.3736 -515.0057
v  -529.9079 -72.3735 -515.0058
v  -608.5344 -66.1709 -533.3179
v  -669.4951 -66.1710 -472.3571
v  -669.4951 -33.4011 -472.3571
v  -608.5344 -33.4010 -533.3179
v  -669.4949 -66.1710 -386.1455
v  -669.4950 -33.4011 -386.1455
v  -608.5341 -66.1709 -325.1848
v  -608.5342 -33.4011 -325.1847
v  -522.3225 -66.1708 -325.1849
v  -461.3618 -66.1707 -386.1457
v  -461.3619 -33.4008 -386.1457
v  -522.3225 -33.4009 -325.1849
v  -461.3620 -66.1707 -472.3573
v  -461.3620 -33.4008 -472.3573
v  -522.3228 -66.1708 -533.3180
v  -522.3229 -33.4009 -533.3180
v  -601.3064 -27.1983 -515.0057
v  -651.5400 -27.1984 -464.7719
v  -480.0313 -27.1981 -464.7721
v  -530.2651 -27.1982 -515.0058
v  -479.6740 -72.3735 -393.7309
v  -529.9077 -72.3736 -343.4970
v  -651.1828 -72.3737 -393.7307
v  -600.9490 -72.3737 -343.4970
v  -651.5400 -27.1984 -393.7307
v  -601.3062 -27.1983 -343.4970
v  -480.0312 -27.1981 -393.7309
v  -530.2649 -27.1982 -343.4970
v  -582.9874 -30.4384 -505.3105
v  -582.9874 -13.3349 -505.3105
v  -549.0976 -13.3348 -505.3105
v  -549.0975 -30.4383 -505.3105
v  -606.9512 -30.4384 -445.0236
v  -606.9513 3.0592 -445.0236
v  -582.9875 3.0593 -468.9875
v  -582.9874 -30.4384 -468.9874
v  -643.2743 -30.4386 -411.1337
v  -643.2744 -13.3351 -411.1337
v  -643.2744 -13.3351 -445.0236
v  -643.2743 -30.4386 -445.0236
v  -582.9874 -30.4383 -387.1700
v  -582.9875 3.0593 -387.1700
v  -606.9513 3.0592 -411.1338
v  -606.9512 -30.4384 -411.1338
v  -525.1337 -30.4382 -411.1338
v  -525.1338 3.0595 -411.1338
v  -549.0977 3.0594 -387.1701
v  -549.0975 -30.4382 -387.1700
v  -488.8105 -30.4380 -445.0237
v  -488.8106 -13.3346 -445.0237
v  -488.8106 -13.3346 -411.1338
v  -488.8106 -30.4380 -411.1338
v  -549.0975 -30.4383 -468.9874
v  -549.0976 3.0594 -468.9875
v  -525.1338 3.0595 -445.0237
v  -525.1337 -30.4382 -445.0237
v  -582.9878 129.5785 -468.9875
v  -549.0980 129.5786 -468.9875
v  -606.9516 129.5784 -445.0237
v  -606.9517 129.5784 -411.1338
v  -582.9879 129.5785 -387.1701
v  -549.0980 129.5786 -387.1701
v  -525.1342 129.5786 -411.1338
v  -525.1342 129.5786 -445.0238
v  -549.0976 -13.3348 -350.8469
v  -549.0975 -30.4382 -350.8469
v  -582.9875 -13.3349 -350.8469
v  -582.9874 -30.4383 -350.8469
v  -582.9874 -30.4384 505.3104
v  -549.0975 -30.4383 505.3104
v  -549.0976 -13.3348 505.3104
v  -582.9874 -13.3349 505.3104
v  -606.9512 -30.4384 445.0235
v  -582.9874 -30.4384 468.9873
v  -582.9875 3.0593 468.9873
v  -606.9513 3.0592 445.0235
v  -643.2743 -30.4386 411.1336
v  -643.2743 -30.4386 445.0235
v  -643.2744 -13.3351 445.0235
v  -643.2744 -13.3351 411.1336
v  -582.9874 -30.4383 387.1698
v  -606.9512 -30.4384 411.1336
v  -606.9513 3.0592 411.1336
v  -582.9875 3.0593 387.1699
v  -525.1337 -30.4382 411.1337
v  -549.0975 -30.4382 387.1699
v  -549.0977 3.0594 387.1699
v  -525.1338 3.0595 411.1337
v  -488.8107 -30.4380 445.0236
v  -488.8107 -30.4380 411.1337
v  -488.8107 -13.3346 411.1337
v  -488.8107 -13.3346 445.0236
v  -549.0975 -30.4382 468.9873
v  -525.1337 -30.4382 445.0235
v  -525.1338 3.0595 445.0236
v  -549.0976 3.0594 468.9873
v  -582.9879 129.5785 468.9874
v  -549.0980 129.5786 468.9874
v  -606.9517 129.5784 445.0235
v  -606.9517 129.5784 411.1337
v  -582.9879 129.5785 387.1699
v  -549.0980 129.5786 387.1700
v  -525.1342 129.5787 411.1338
v  -525.1342 129.5786 445.0237
v  -549.0975 -30.4382 350.8468
v  -549.0976 -13.3348 350.8468
v  -582.9875 -13.3349 350.8468
v  -582.9874 -30.4383 350.8468
v  322.5701 273.9620 -450.4630
v  322.5701 273.9620 -531.7685
v  295.1765 321.5795 -487.3083
v  295.1765 321.5796 -408.5989
v  268.8841 321.5795 -487.3083
v  268.8841 321.5795 -408.5989
v  268.8843 273.9618 -531.7684
v  268.8840 347.7371 -498.8625
v  268.8840 347.7372 -408.5989
v  268.8843 273.9618 -556.8293
v  186.4358 347.7370 -408.5989
v  186.4358 347.7369 -498.8625
v  132.7504 273.9615 -450.4629
v  160.1435 321.5792 -408.5989
v  160.1435 321.5792 -487.3083
v  132.7504 273.9615 -531.7684
v  186.4359 321.5793 -408.5989
v  186.4359 321.5793 -487.3083
v  186.4362 273.9616 -531.7684
v  186.4362 273.9616 -556.8293
v  322.5702 273.9621 450.4628
v  295.1766 321.5796 408.5988
v  295.1766 321.5796 487.3082
v  322.5702 273.9621 531.7683
v  268.8842 321.5796 408.5988
v  268.8842 321.5795 487.3082
v  268.8845 273.9619 531.7683
v  268.8841 347.7372 408.5988
v  268.8840 347.7372 498.8625
v  268.8845 273.9619 556.8292
v  186.4359 347.7369 408.5988
v  186.4359 347.7369 498.8625
v  132.7505 273.9614 450.4628
v  132.7505 273.9614 531.7683
v  160.1436 321.5791 487.3083
v  160.1436 321.5792 408.5989
v  186.4361 321.5793 487.3083
v  186.4360 321.5793 408.5988
v  186.4363 273.9616 531.7683
v  186.4363 273.9616 556.8292
v  429.7845 -72.3158 514.9371
v  379.5508 -72.3159 464.7035
v  551.0595 -72.3156 464.7033
v  500.8257 -72.3157 514.9371
v  422.1993 -66.1131 533.2494
v  422.1992 -33.3432 533.2493
v  361.2385 -33.3434 472.2886
v  361.2385 -66.1132 472.2886
v  361.2385 -33.3434 386.0771
v  361.2386 -66.1132 386.0771
v  422.1994 -33.3433 325.1163
v  422.1995 -66.1131 325.1163
v  508.4110 -66.1129 325.1162
v  508.4109 -33.3431 325.1162
v  569.3717 -33.3430 386.0770
v  569.3717 -66.1128 386.0770
v  569.3716 -33.3430 472.2885
v  569.3716 -66.1128 472.2885
v  508.4108 -33.3431 533.2493
v  508.4109 -66.1129 533.2493
v  550.7023 -27.1402 464.7033
v  379.1935 -27.1406 464.7034
v  429.4272 -27.1405 514.9371
v  500.4685 -27.1403 514.9371
v  551.0596 -72.3156 393.6621
v  500.8259 -72.3157 343.4284
v  429.7846 -72.3158 343.4284
v  379.5508 -72.3159 393.6622
v  379.1935 -27.1406 393.6622
v  429.4274 -27.1405 343.4284
v  500.4686 -27.1404 343.4284
v  550.7024 -27.1402 393.6621
v  551.0593 -72.3732 -464.7034
v  379.5506 -72.3734 -464.7035
v  429.7843 -72.3734 -514.9373
v  500.8255 -72.3733 -514.9372
v  422.1991 -66.1706 -533.2495
v  361.2384 -66.1707 -472.2886
v  361.2384 -33.4008 -472.2886
v  422.1991 -33.4008 -533.2495
v  361.2385 -66.1707 -386.0771
v  361.2384 -33.4009 -386.0771
v  422.1992 -66.1706 -325.1163
v  422.1992 -33.4008 -325.1163
v  508.4109 -66.1705 -325.1163
v  569.3716 -66.1705 -386.0770
v  569.3716 -33.4006 -386.0770
v  508.4108 -33.4007 -325.1162
v  569.3715 -66.1704 -472.2885
v  569.3715 -33.4006 -472.2885
v  508.4107 -66.1705 -533.2494
v  508.4107 -33.4007 -533.2494
v  429.4271 -27.1980 -514.9372
v  379.1934 -27.1981 -464.7035
v  550.7021 -27.1979 -464.7034
v  500.4683 -27.1979 -514.9372
v  551.0594 -72.3732 -393.6622
v  500.8257 -72.3733 -343.4285
v  379.5507 -72.3734 -393.6622
v  429.7844 -72.3734 -343.4285
v  379.1935 -27.1981 -393.6622
v  429.4272 -27.1980 -343.4285
v  550.7022 -27.1979 -393.6621
v  500.4685 -27.1980 -343.4285
v  445.1927 -30.3019 -505.2420
v  445.1927 -13.0828 -505.2420
v  479.0826 -13.0827 -505.2421
v  479.0826 -30.3017 -505.2420
v  421.2289 -30.3019 -444.9552
v  421.2288 3.0544 -444.9552
v  445.1926 3.0544 -468.9190
v  445.1927 -30.3018 -468.9190
v  384.9058 -30.3020 -411.0653
v  384.9058 -13.0830 -411.0653
v  384.9058 -13.0830 -444.9552
v  384.9058 -30.3020 -444.9552
v  445.1927 -30.3018 -387.1016
v  445.1926 3.0544 -387.1016
v  421.2288 3.0544 -411.0653
v  421.2289 -30.3019 -411.0653
v  503.0464 -30.3016 -411.0653
v  503.0463 3.0546 -411.0654
v  479.0825 3.0545 -387.1017
v  479.0826 -30.3017 -387.1016
v  539.3694 -30.3015 -444.9553
v  539.3694 -13.0825 -444.9553
v  539.3694 -13.0825 -411.0654
v  539.3694 -30.3015 -411.0654
v  479.0826 -30.3017 -468.9190
v  479.0825 3.0545 -468.9190
v  503.0463 3.0546 -444.9553
v  503.0464 -30.3016 -444.9553
v  445.1924 79.3447 -468.9190
v  479.0823 79.3448 -468.9190
v  421.2287 48.4734 -444.9553
v  421.2287 23.4584 -411.0653
v  445.1925 23.4585 -387.1016
v  479.0824 23.4586 -387.1017
v  503.0462 23.4587 -411.0654
v  503.0461 72.7607 -444.9553
v  479.0825 -13.0827 -350.7785
v  479.0826 -30.3017 -350.7785
v  445.1926 -13.0828 -350.7785
v  445.1927 -30.3018 -350.7785
v  445.1927 -30.3019 505.2421
v  479.0826 -30.3017 505.2421
v  479.0826 -13.0827 505.2421
v  445.1926 -13.0828 505.2421
v  421.2289 -30.3019 444.9552
v  445.1927 -30.3018 468.9190
v  445.1925 3.0544 468.9190
v  421.2288 3.0544 444.9552
v  384.9057 -30.3020 411.0653
v  384.9057 -30.3020 444.9552
v  384.9057 -13.0830 444.9552
v  384.9057 -13.0830 411.0653
v  445.1926 -30.3018 387.1015
v  421.2289 -30.3019 411.0653
v  421.2288 3.0544 411.0653
v  445.1925 3.0544 387.1016
v  503.0463 -30.3016 411.0654
v  479.0826 -30.3017 387.1016
v  479.0825 3.0545 387.1016
v  503.0462 3.0546 411.0654
v  539.3694 -30.3015 444.9553
v  539.3694 -30.3015 411.0654
v  539.3694 -13.0825 411.0655
v  539.3694 -13.0825 444.9553
v  479.0826 -30.3017 468.9190
v  503.0463 -30.3016 444.9552
v  503.0462 3.0546 444.9553
v  479.0825 3.0545 468.9190
v  445.1923 79.3447 468.9190
v  479.0822 79.3448 468.9191
v  421.2286 48.4734 444.9552
v  421.2287 23.4584 411.0654
v  445.1925 23.4585 387.1016
v  479.0824 23.4586 387.1016
v  503.0462 23.4587 411.0654
v  503.0460 72.7607 444.9553
v  479.0826 -30.3017 350.7785
v  479.0825 -13.0827 350.7785
v  445.1926 -13.0828 350.7785
v  445.1926 -30.3018 350.7785
v  142.1631 33.6690 -588.2214
v  91.6045 33.6689 -544.1438
v  91.6042 186.5306 -544.1439
v  142.1628 186.5307 -588.2214
v  70.3733 33.6688 -497.4291
v  70.3733 33.6688 -382.4012
v  70.3730 186.5306 -411.2672
v  70.3730 186.5306 -497.4292
v  148.5535 257.9500 -573.2032
v  107.3954 257.9500 -537.7372
v  130.9259 276.7915 -531.4850
v  157.1621 276.7915 -554.0928
v  86.0473 257.9500 -424.7537
v  107.8164 276.7915 -424.8448
v  107.8164 276.7915 -482.3826
v  86.0473 257.9499 -491.1608
v  148.5540 -28.7307 -573.2031
v  157.8875 -47.5135 -555.0106
v  126.4264 -47.5136 -528.2687
v  107.3960 -28.7308 -537.7371
v  86.0479 -28.7308 -370.6178
v  86.0478 -28.7308 -491.1607
v  107.1474 -47.5136 -484.8642
v  107.7894 -47.5136 -366.9311
v  166.5905 -47.5135 -535.6815
v  150.9396 -47.5135 -522.1952
v  253.6425 -47.5133 -572.8405
v  242.2732 -47.5133 -554.0774
v  216.1192 -47.5134 -554.0774
v  204.7499 -47.5134 -572.8405
v  166.5903 9.8245 -535.6815
v  150.9395 9.8245 -522.1952
v  242.2731 9.8247 -554.0774
v  216.1191 9.8246 -554.0774
v  107.3828 18.1197 -537.7484
v  148.5459 18.1198 -573.2101
v  148.5455 202.0799 -573.2101
v  107.3825 202.0799 -537.7484
v  198.0822 257.9371 -591.6044
v  260.3089 257.9373 -591.6044
v  260.3091 202.0802 -591.6278
v  198.0823 202.0800 -591.6278
v  86.0478 18.1197 -379.4650
v  86.0478 18.1197 -491.1607
v  86.0474 202.0798 -491.1608
v  86.0474 202.0798 -414.2034
v  266.8016 186.5310 -606.7611
v  191.5898 186.5308 -606.7611
v  191.5901 33.6691 -606.7610
v  208.6759 276.7916 -572.8406
v  198.0828 -28.7176 -591.6043
v  129.5915 -47.5136 -475.6188
v  129.5914 9.8244 -475.6188
v  198.0827 18.1199 -591.6278
v  129.5914 9.8244 -377.9009
v  129.5915 -47.5136 -366.9311
v  328.8008 9.8248 -475.6189
v  328.8008 9.8249 -377.9009
v  301.2290 276.7918 -554.0928
v  249.7152 276.7917 -572.8406
v  266.8019 33.6692 -606.7611
v  260.3094 18.1200 -591.6278
v  260.3095 -28.7175 -591.6043
v  316.2290 33.6693 -588.2214
v  316.2286 186.5311 -588.2214
v  366.7873 186.5312 -544.1439
v  366.7876 33.6694 -544.1439
v  388.0188 33.6695 -497.4292
v  388.0185 186.5312 -497.4292
v  388.0185 186.5312 -411.2671
v  388.0188 33.6695 -382.4012
v  309.8376 257.9504 -573.2032
v  327.4652 276.7919 -531.4850
v  350.9958 257.9504 -537.7372
v  372.3438 257.9505 -424.7538
v  372.3438 257.9505 -491.1609
v  350.5747 276.7920 -482.3826
v  350.5747 276.7920 -424.8448
v  309.8383 -28.7304 -573.2032
v  350.9964 -28.7303 -537.7371
v  331.9660 -47.5131 -528.2688
v  300.5049 -47.5132 -555.0107
v  372.3445 -28.7302 -370.6179
v  350.6031 -47.5131 -366.9311
v  351.2450 -47.5131 -484.8642
v  372.3445 -28.7302 -491.1608
v  307.4528 -47.5132 -522.1952
v  291.8019 -47.5132 -535.6815
v  307.4526 9.8248 -522.1953
v  291.8018 9.8248 -535.6816
v  309.8463 18.1201 -573.2101
v  351.0092 18.1202 -537.7484
v  351.0089 202.0804 -537.7484
v  309.8459 202.0803 -573.2101
v  372.3443 18.1203 -491.1608
v  372.3444 18.1203 -379.4649
v  372.3440 202.0804 -414.2034
v  372.3439 202.0804 -491.1608
v  328.8009 -47.5131 -475.6189
v  328.8009 -47.5131 -366.9312
v  -441.8008 71.2499 -588.2214
v  -492.3593 71.2498 -544.1438
v  -492.3596 224.1116 -544.1439
v  -441.8010 224.1117 -588.2214
v  -513.5905 71.2498 -497.4292
v  -513.5905 71.2498 -382.4012
v  -513.5908 224.1115 -411.2672
v  -513.5908 224.1115 -497.4292
v  -435.4103 295.5310 -573.2032
v  -476.5683 295.5309 -537.7372
v  -453.0378 314.3725 -531.4850
v  -426.8017 314.3725 -554.0928
v  -497.9165 295.5309 -424.7538
v  -476.1474 314.3725 -424.8448
v  -476.1474 314.3725 -482.3826
v  -497.9165 295.5309 -491.1609
v  -435.4098 8.8503 -573.2031
v  -426.0763 -9.9326 -555.0106
v  -457.5374 -9.9326 -528.2687
v  -476.5678 8.8502 -537.7371
v  -497.9159 8.8502 -370.6179
v  -497.9159 8.8502 -491.1608
v  -476.8164 -9.9327 -484.8642
v  -476.1744 -9.9327 -366.9311
v  -417.3733 -9.9325 -535.6815
v  -433.0241 -9.9326 -522.1952
v  -330.3213 -9.9324 -572.8405
v  -341.6906 -9.9324 -554.0774
v  -367.8446 -9.9324 -554.0774
v  -379.2139 -9.9325 -572.8405
v  -417.3735 47.4055 -535.6815
v  -433.0243 47.4054 -522.1952
v  -341.6907 47.4056 -554.0774
v  -367.8447 47.4056 -554.0774
v  -476.5809 55.7007 -537.7484
v  -435.4179 55.7008 -573.2101
v  -435.4183 239.6609 -573.2101
v  -476.5813 239.6608 -537.7484
v  -385.8816 295.5181 -591.6044
v  -323.6549 295.5182 -591.6044
v  -323.6548 239.6611 -591.6278
v  -385.8815 239.6610 -591.6278
v  -497.9160 55.7006 -379.4650
v  -497.9160 55.7006 -491.1608
v  -497.9164 239.6608 -491.1609
v  -497.9164 239.6608 -414.2035
v  -317.1622 224.1119 -606.7611
v  -392.3739 224.1118 -606.7611
v  -392.3736 71.2500 -606.7610
v  -375.2879 314.3725 -572.8406
v  -385.8810 8.8633 -591.6043
v  -454.3723 -9.9326 -475.6189
v  -454.3724 47.4054 -475.6189
v  -385.8811 55.7009 -591.6278
v  -454.3724 47.4054 -377.9010
v  -454.3722 -9.9326 -366.9311
v  -255.1630 47.4058 -475.6189
v  -255.1630 47.4058 -377.9009
v  -282.7348 314.3727 -554.0928
v  -334.2486 314.3726 -572.8406
v  -317.1619 71.2502 -606.7611
v  -323.6544 55.7010 -591.6278
v  -323.6543 8.8634 -591.6043
v  -267.7348 71.2503 -588.2214
v  -267.7351 224.1120 -588.2214
v  -217.1765 224.1121 -544.1439
v  -217.1762 71.2504 -544.1439
v  -195.9451 71.2504 -497.4292
v  -195.9454 224.1122 -497.4292
v  -195.9454 224.1122 -411.2672
v  -195.9450 71.2504 -382.4013
v  -274.1261 295.5313 -573.2032
v  -256.4986 314.3729 -531.4850
v  -232.9680 295.5314 -537.7372
v  -211.6199 295.5314 -424.7538
v  -211.6199 295.5314 -491.1609
v  -233.3891 314.3729 -482.3827
v  -233.3891 314.3729 -424.8448
v  -274.1255 8.8506 -573.2032
v  -232.9674 8.8507 -537.7371
v  -251.9978 -9.9322 -528.2688
v  -283.4589 -9.9323 -555.0107
v  -211.6193 8.8507 -370.6179
v  -233.3607 -9.9322 -366.9312
v  -232.7188 -9.9322 -484.8642
v  -211.6193 8.8507 -491.1608
v  -276.5110 -9.9323 -522.1952
v  -292.1619 -9.9323 -535.6815
v  -276.5111 47.4057 -522.1953
v  -292.1620 47.4057 -535.6816
v  -274.1175 55.7011 -573.2101
v  -232.9545 55.7012 -537.7484
v  -232.9549 239.6613 -537.7484
v  -274.1179 239.6612 -573.2101
v  -211.6195 55.7012 -491.1608
v  -211.6194 55.7012 -379.4650
v  -211.6198 239.6613 -414.2034
v  -211.6198 239.6613 -491.1608
v  -255.1629 -9.9322 -475.6189
v  -255.1629 -9.9322 -366.9312
v  142.1631 33.6691 588.2212
v  142.1630 186.5308 588.2213
v  91.6044 186.5307 544.1438
v  91.6045 33.6690 544.1437
v  70.3734 33.6690 497.4290
v  70.3732 186.5307 497.4291
v  70.3732 186.5307 411.2671
v  70.3733 33.6690 382.4011
v  148.5537 257.9501 573.2031
v  157.1623 276.7916 554.0927
v  130.9262 276.7916 531.4849
v  107.3957 257.9501 537.7371
v  86.0475 257.9501 424.7537
v  86.0475 257.9500 491.1607
v  107.8166 276.7916 482.3825
v  107.8166 276.7916 424.8447
v  148.5540 -28.7306 573.2031
v  107.3960 -28.7307 537.7371
v  126.4264 -47.5135 528.2687
v  157.8874 -47.5134 555.0105
v  86.0478 -28.7306 370.6177
v  107.7893 -47.5135 366.9311
v  107.1473 -47.5135 484.8641
v  86.0478 -28.7307 491.1606
v  150.9396 -47.5134 522.1951
v  166.5904 -47.5134 535.6815
v  253.6425 -47.5133 572.8403
v  204.7498 -47.5134 572.8403
v  216.1192 -47.5134 554.0772
v  242.2731 -47.5133 554.0772
v  150.9396 9.8245 522.1951
v  166.5904 9.8246 535.6815
v  216.1191 9.8246 554.0773
v  242.2731 9.8247 554.0773
v  148.5459 18.1199 573.2099
v  107.3829 18.1198 537.7483
v  107.3827 202.0800 537.7484
v  148.5457 202.0800 573.2100
v  198.0825 257.9371 591.6043
v  198.0825 202.0801 591.6277
v  260.3092 202.0802 591.6277
v  260.3091 257.9372 591.6043
v  86.0478 18.1198 491.1606
v  86.0478 18.1198 379.4649
v  86.0476 202.0799 414.2033
v  86.0476 202.0799 491.1607
v  191.5900 186.5309 606.7610
v  266.8018 186.5309 606.7610
v  191.5902 33.6691 606.7609
v  208.6761 276.7916 572.8405
v  198.0828 -28.7176 591.6042
v  129.5915 -47.5135 475.6187
v  129.5914 9.8245 475.6187
v  198.0827 18.1199 591.6277
v  129.5915 -47.5135 366.9311
v  129.5914 9.8245 377.9008
v  328.8008 9.8248 377.9008
v  328.8008 9.8248 475.6187
v  249.7154 276.7917 572.8405
v  301.2292 276.7917 554.0927
v  266.8020 33.6692 606.7609
v  260.3095 -28.7175 591.6042
v  260.3094 18.1200 591.6277
v  316.2290 33.6693 588.2212
v  366.7876 33.6693 544.1437
v  366.7874 186.5311 544.1437
v  316.2288 186.5310 588.2213
v  388.0188 33.6694 497.4291
v  388.0188 33.6694 382.4011
v  388.0185 186.5311 411.2671
v  388.0186 186.5311 497.4291
v  309.8379 257.9503 573.2031
v  350.9959 257.9504 537.7371
v  327.4654 276.7918 531.4849
v  372.3441 257.9504 424.7537
v  350.5749 276.7919 424.8447
v  350.5749 276.7919 482.3825
v  372.3441 257.9504 491.1608
v  309.8383 -28.7304 573.2031
v  300.5049 -47.5133 555.0105
v  331.9660 -47.5132 528.2687
v  350.9963 -28.7304 537.7371
v  372.3444 -28.7303 370.6178
v  372.3445 -28.7303 491.1607
v  351.2450 -47.5132 484.8641
v  350.6030 -47.5132 366.9310
v  291.8019 -47.5133 535.6815
v  307.4527 -47.5133 522.1951
v  291.8018 9.8247 535.6815
v  307.4526 9.8248 522.1951
v  351.0093 18.1201 537.7483
v  309.8463 18.1201 573.2099
v  309.8461 202.0802 573.2100
v  351.0090 202.0803 537.7483
v  372.3443 18.1201 379.4648
v  372.3443 18.1201 491.1607
v  372.3441 202.0803 491.1607
v  372.3441 202.0803 414.2033
v  328.8009 -47.5132 475.6187
v  328.8009 -47.5132 366.9310
v  -441.8006 71.2500 588.2214
v  -441.8008 224.1118 588.2214
v  -492.3594 224.1117 544.1439
v  -492.3593 71.2499 544.1439
v  -513.5904 71.2499 497.4292
v  -513.5906 224.1117 497.4292
v  -513.5906 224.1117 411.2671
v  -513.5904 71.2499 382.4012
v  -435.4100 295.5310 573.2032
v  -426.8014 314.3725 554.0928
v  -453.0376 314.3726 531.4850
v  -476.5681 295.5310 537.7373
v  -497.9163 295.5310 424.7538
v  -497.9163 295.5310 491.1609
v  -476.1472 314.3726 482.3826
v  -476.1472 314.3726 424.8448
v  -435.4097 8.8503 573.2032
v  -476.5678 8.8503 537.7372
v  -457.5374 -9.9325 528.2688
v  -426.0764 -9.9325 555.0107
v  -497.9160 8.8503 370.6179
v  -476.1745 -9.9326 366.9311
v  -476.8164 -9.9326 484.8642
v  -497.9160 8.8503 491.1608
v  -433.0242 -9.9325 522.1952
v  -417.3734 -9.9325 535.6816
v  -330.3213 -9.9324 572.8405
v  -379.2139 -9.9324 572.8405
v  -367.8446 -9.9324 554.0774
v  -341.6906 -9.9324 554.0774
v  -433.0243 47.4055 522.1953
v  -417.3734 47.4055 535.6816
v  -367.8446 47.4056 554.0774
v  -341.6907 47.4056 554.0774
v  -435.4179 55.7008 573.2101
v  -476.5809 55.7008 537.7484
v  -476.5811 239.6609 537.7484
v  -435.4181 239.6609 573.2101
v  -385.8813 295.5181 591.6045
v  -385.8812 239.6610 591.6278
v  -323.6545 239.6611 591.6278
v  -323.6547 295.5182 591.6045
v  -497.9160 55.7008 491.1608
v  -497.9160 55.7008 379.4649
v  -497.9162 239.6609 414.2034
v  -497.9162 239.6609 491.1608
v  -392.3737 224.1118 606.7611
v  -317.1620 224.1119 606.7611
v  -392.3736 71.2501 606.7611
v  -375.2877 314.3725 572.8406
v  -385.8810 8.8634 591.6043
v  -454.3723 -9.9325 475.6189
v  -454.3723 47.4055 475.6189
v  -385.8810 55.7009 591.6278
v  -454.3723 -9.9325 366.9311
v  -454.3724 47.4055 377.9009
v  -255.1630 47.4057 377.9009
v  -255.1630 47.4057 475.6188
v  -334.2484 314.3726 572.8406
v  -282.7346 314.3727 554.0928
v  -317.1618 71.2502 606.7611
v  -323.6543 8.8634 591.6043
v  -323.6544 55.7010 591.6278
v  -267.7347 71.2502 588.2214
v  -217.1762 71.2503 544.1438
v  -217.1763 224.1120 544.1439
v  -267.7350 224.1120 588.2214
v  -195.9450 71.2503 497.4291
v  -195.9450 71.2503 382.4012
v  -195.9452 224.1121 411.2672
v  -195.9452 224.1121 497.4292
v  -274.1259 295.5313 573.2032
v  -232.9678 295.5313 537.7372
v  -256.4984 314.3728 531.4850
v  -211.6197 295.5313 424.7537
v  -233.3889 314.3728 424.8448
v  -233.3889 314.3728 482.3826
v  -211.6197 295.5313 491.1608
v  -274.1255 8.8505 573.2032
v  -283.4589 -9.9323 555.0107
v  -251.9978 -9.9323 528.2687
v  -232.9675 8.8506 537.7371
v  -211.6193 8.8506 370.6178
v  -211.6193 8.8506 491.1607
v  -232.7188 -9.9323 484.8642
v  -233.3607 -9.9323 366.9312
v  -292.1619 -9.9323 535.6815
v  -276.5110 -9.9323 522.1952
v  -292.1619 47.4057 535.6815
v  -276.5111 47.4057 522.1952
v  -232.9545 55.7011 537.7484
v  -274.1175 55.7010 573.2101
v  -274.1177 239.6612 573.2101
v  -232.9547 239.6612 537.7484
v  -211.6194 55.7011 379.4650
v  -211.6194 55.7011 491.1607
v  -211.6196 239.6612 491.1608
v  -211.6196 239.6612 414.2034
v  -255.1629 -9.9323 475.6188
v  -255.1629 -9.9323 366.9312
v  520.3069 21.8186 436.1765
v  364.8901 21.8185 436.1042
v  364.8900 21.8185 381.3632
v  520.3069 21.8185 381.3632
v  589.8823 93.3428 494.0368
v  640.7635 93.3428 485.5400
v  640.7636 148.8531 485.5400
v  589.8823 148.8531 494.0368
v  364.8900 220.3775 408.9702
v  364.8900 220.3775 460.2511
v  508.6223 220.3776 426.8932
v  508.6223 220.3775 413.6343
v  530.0056 210.4288 407.9629
v  530.0055 210.4289 428.1250
v  572.6434 166.6919 447.7007
v  572.6436 166.6919 381.3631
v  572.6435 75.5039 460.2050
v  572.6436 75.5039 381.3631
v  517.1338 207.5763 445.2668
v  364.8900 207.4455 480.5088
v  364.8900 166.6918 506.5478
v  557.0989 166.6919 463.6724
v  364.8900 75.5038 506.5477
v  589.8823 166.6919 482.1905
v  645.0082 166.6919 472.9849
v  583.8538 166.6919 463.5000
v  652.2886 166.6919 381.3631
v  652.2887 75.5040 381.3631
v  645.0082 75.5040 472.9849
v  589.8823 75.5040 482.1905
v  364.8900 75.5038 519.7622
v  658.2488 148.8532 473.5655
v  658.2488 93.3428 473.5655
v  716.0399 93.3429 376.1199
v  716.0399 148.8541 376.1199
v  701.7584 166.6927 377.2944
v  701.7585 75.5040 377.2944
v  520.3069 21.8185 -434.7983
v  520.3069 21.8185 -379.9850
v  364.8900 21.8182 -379.9850
v  364.8901 21.8182 -434.7260
v  584.1827 148.8531 -493.6104
v  583.9836 93.3428 -493.6437
v  364.8899 93.3424 -530.2304
v  364.8898 148.8526 -530.2304
v  364.8896 220.3772 -415.9021
v  508.6220 220.3774 -412.2562
v  508.6219 220.3775 -425.5150
v  364.8896 220.3772 -458.8730
v  530.0052 210.4288 -406.5848
v  572.6434 166.6919 -379.9850
v  572.6432 166.6919 -446.3226
v  530.0051 210.4288 -426.7469
v  572.6434 75.5039 -458.8268
v  572.6435 75.5039 -379.9850
v  517.1335 207.5762 -443.8887
v  557.0986 166.6919 -462.2943
v  364.8898 166.6915 -505.1696
v  364.8896 207.4452 -479.1307
v  364.8899 75.5035 -505.1696
v  584.0990 166.6919 -481.7780
v  364.8898 166.6915 -518.3841
v  583.8535 166.6920 -462.1219
v  652.2883 166.6920 -379.9850
v  645.0080 166.6920 -471.6068
v  645.0082 75.5041 -471.6068
v  652.2886 75.5041 -379.9850
v  583.7720 75.5040 -481.8327
v  658.2486 148.8533 -472.1874
v  716.0397 148.8543 -374.7418
v  716.0398 93.3431 -374.7418
v  658.2487 93.3430 -472.1874
v  701.7583 166.6929 -375.9164
v  701.7584 75.5042 -375.9164
v  640.7635 93.3429 -484.1620
v  640.7634 148.8532 -484.1620
v  364.8899 75.5035 -518.3841
v  -268.5625 304.0045 498.1158
v  -268.5624 273.3362 498.8721
v  360.4674 273.3380 498.8719
v  360.4674 304.0064 498.8720
v  483.7085 273.3383 420.6337
v  483.7085 304.0067 420.6337
v  -268.5624 254.4650 427.9999
v  420.4412 254.4670 427.9998
v  358.8784 254.4669 446.1063
v  -268.5623 254.4650 446.1065
v  -268.5625 322.8756 427.9999
v  -268.5625 322.8757 445.3502
v  358.8782 322.8775 446.1063
v  420.4410 322.8777 427.9998
v  -268.5626 304.0048 -498.1158
v  360.4673 304.0062 -498.8720
v  360.4673 273.3379 -498.8720
v  -268.5625 273.3365 -498.8721
v  483.7085 273.3380 -420.6339
v  483.7085 304.0064 -420.6339
v  -268.5625 254.4653 -427.9999
v  -268.5625 254.4653 -446.1064
v  358.8783 254.4667 -446.1064
v  420.4411 254.4668 -428.0000
v  -268.5625 322.8759 -427.9999
v  420.4409 322.8774 -428.0000
v  358.8781 322.8773 -446.1064
v  -268.5626 322.8759 -445.3502
v  -617.0995 262.2806 384.9819
v  -660.0973 218.5436 385.1230
v  -660.0972 218.5436 451.9243
v  -617.0996 262.2806 431.8850
v  -604.5875 259.4280 449.0268
v  -596.5093 272.2293 430.6531
v  -596.5093 272.2293 385.0752
v  -644.5526 218.5436 467.4323
v  -491.6606 272.2293 385.0654
v  -491.6606 272.2293 447.3024
v  -491.6606 218.5435 487.7007
v  -491.6606 259.3628 466.6244
v  -617.0996 82.6050 432.4821
v  -660.0973 127.3557 451.9243
v  -660.0973 127.3557 385.1230
v  -617.0996 82.6050 384.9819
v  -604.1745 82.6050 448.9659
v  -491.6606 82.6049 449.2791
v  -491.6606 127.3556 487.7007
v  -645.4683 127.3557 467.2281
v  -671.0289 218.5436 466.5531
v  -732.4542 218.5437 385.1230
v  -732.4542 218.5437 476.7448
v  -732.4542 127.3557 385.1230
v  -648.5656 127.3557 487.1452
v  -732.4542 127.3557 476.7448
v  -671.0289 127.3557 466.5531
v  -648.5656 200.7048 498.4893
v  -491.6606 200.7047 518.4445
v  -491.6606 218.5436 506.5982
v  -648.5656 218.5436 487.1453
v  -721.1382 157.8899 455.9085
v  -721.1382 188.0095 455.9085
v  -721.1382 188.0095 404.1610
v  -721.1382 157.8899 404.1610
v  -720.8200 145.1945 489.3000
v  -720.8201 200.7048 489.3000
v  -722.4464 142.6228 368.8360
v  -722.4464 203.2766 368.8360
v  -670.0973 203.2766 368.8361
v  -670.0973 142.6228 368.8361
v  -744.8642 207.5500 393.2303
v  -744.8642 207.5500 470.4956
v  -744.8642 138.3493 393.2303
v  -744.8642 138.3493 470.4956
v  -745.9181 200.5481 397.7719
v  -745.9181 200.5481 465.8935
v  -745.9181 145.3512 397.7719
v  -745.9181 145.3512 465.8935
v  -596.5094 73.6703 429.1134
v  -491.6606 73.6703 429.0797
v  -596.5094 73.6703 385.0753
v  -491.6606 73.6702 385.0654
v  -648.5656 145.1945 498.4893
v  -491.6606 145.1945 518.4445
v  -491.6606 127.3556 506.5982
v  -617.0996 262.2806 -408.4333
v  -660.0973 218.5437 -451.9242
v  -660.0974 218.5437 -385.1230
v  -596.5093 272.2293 -407.8640
v  -604.5875 259.3954 -449.0266
v  -644.5527 218.5437 -467.4322
v  -491.6604 272.2291 -385.0653
v  -491.6605 272.2291 -447.3023
v  -491.6605 259.3952 -466.6242
v  -491.6606 218.5434 -487.7006
v  -617.0999 82.6050 -432.4820
v  -617.0999 82.6050 -384.9817
v  -660.0975 127.3557 -385.1230
v  -660.0975 127.3557 -451.9242
v  -604.1748 82.6049 -448.9658
v  -645.4684 127.3557 -467.2280
v  -491.6607 127.3554 -487.7006
v  -491.6608 82.6048 -449.2789
v  -671.0290 218.5437 -466.5529
v  -732.4542 218.5438 -385.1229
v  -732.4543 127.3559 -385.1229
v  -671.0291 127.3557 -466.5529
v  -667.3998 127.3557 -484.8101
v  -720.8202 200.7050 -489.2998
v  -732.4542 218.5438 -476.7447
v  -667.3998 218.5437 -484.8101
v  -667.3998 200.7049 -496.0938
v  -721.1384 157.8900 -455.9083
v  -721.1383 157.8900 -404.1609
v  -721.1383 188.0096 -404.1609
v  -721.1383 188.0096 -455.9083
v  -720.8202 145.1947 -489.2998
v  -732.4543 127.3559 -476.7447
v  -722.4465 142.6229 -368.8358
v  -670.0974 142.6228 -368.8359
v  -670.0974 203.2766 -368.8359
v  -722.4464 203.2767 -368.8358
v  -744.8643 207.5502 -470.4954
v  -744.8642 207.5502 -393.2301
v  -744.8644 138.3495 -393.2301
v  -744.8644 138.3495 -470.4954
v  -745.9182 200.5483 -397.7718
v  -745.9183 200.5483 -465.8933
v  -745.9183 145.3513 -397.7718
v  -745.9183 145.3513 -465.8933
v  -596.5096 73.6703 -429.1133
v  -491.6608 73.6701 -429.0796
v  -596.5096 73.6703 -385.0751
v  -491.6607 73.6701 -385.0653
v  -667.3998 145.1946 -496.0938
v  794.0143 62.2329 -200.7365
v  -491.6607 218.5434 -506.5981
v  -491.6607 200.7046 -518.4443
v  -491.6607 145.1943 -518.4443
v  -491.6607 127.3554 -506.5981
v  364.8900 166.6918 519.7622
v  364.8900 148.8529 531.6085
v  364.8900 93.3427 531.6085
# 1246 vertices

vt 0.5939 0.8396 0.0000
vt 0.4841 0.9139 0.0000
vt 0.4841 0.7966 0.0000
vt 0.1171 0.7966 0.0000
vt 0.2094 0.7966 0.0000
vt 0.2094 0.9139 0.0000
vt 0.1171 0.9139 0.0000
vt 0.3031 0.9139 0.0000
vt 0.3031 0.7966 0.0000
vt 0.3031 0.7865 0.0000
vt 0.2094 0.7865 0.0000
vt 0.4305 0.2978 0.0000
vt 0.5243 0.2978 0.0000
vt 0.5243 0.3331 0.0000
vt 0.4305 0.3331 0.0000
vt 0.7179 0.2978 0.0000
vt 0.7179 0.3331 0.0000
vt 0.6165 0.3331 0.0000
vt 0.6165 0.2978 0.0000
vt 0.3350 0.0313 0.0000
vt 0.3350 0.0111 0.0000
vt 0.2177 0.0111 0.0000
vt 0.2177 0.0540 0.0000
vt 0.1239 0.0111 0.0000
vt 0.1239 0.0540 0.0000
vt 0.0066 0.0313 0.0000
vt 0.0066 0.0111 0.0000
vt 0.1428 0.2310 0.0000
vt 0.1629 0.2310 0.0000
vt 0.1629 0.3248 0.0000
vt 0.1428 0.3248 0.0000
vt 0.1142 0.1154 0.0000
vt 0.2064 0.1154 0.0000
vt 0.2064 0.1652 0.0000
vt 0.1142 0.1652 0.0000
vt 0.9412 0.5243 0.0000
vt 0.8763 0.5243 0.0000
vt 0.9429 0.4980 0.0000
vt 0.4811 0.1652 0.0000
vt 0.4811 0.1154 0.0000
vt 0.6261 0.1231 0.0000
vt 0.6261 0.1652 0.0000
vt 0.0384 0.0909 0.0000
vt 0.0384 0.0965 0.0000
vt 0.0291 0.1009 0.0000
vt 0.0183 0.0909 0.0000
vt 0.8570 0.3514 0.0000
vt 0.9156 0.3514 0.0000
vt 0.8855 0.3609 0.0000
vt 0.8570 0.3609 0.0000
vt 0.9109 0.3609 0.0000
vt 0.9944 0.5058 0.0000
vt 0.9878 0.5058 0.0000
vt 0.9944 0.7805 0.0000
vt 0.9944 0.8728 0.0000
vt 0.9878 0.8728 0.0000
vt 0.9878 0.7805 0.0000
vt 0.9878 0.9741 0.0000
vt 0.9944 0.9871 0.0000
vt 0.9403 0.9871 0.0000
vt 0.9403 0.9741 0.0000
vt 0.2094 0.9417 0.0000
vt 0.3031 0.9417 0.0000
vt 0.3031 0.9683 0.0000
vt 0.2094 0.9683 0.0000
vt 0.0530 0.2156 0.0000
vt 0.0951 0.2156 0.0000
vt 0.0951 0.3330 0.0000
vt 0.0530 0.3330 0.0000
vt 0.1065 0.3353 0.0000
vt 0.1378 0.3236 0.0000
vt 0.1378 0.2297 0.0000
vt 0.1065 0.2180 0.0000
vt 0.8762 0.4886 0.0000
vt 0.8644 0.4835 0.0000
vt 0.8644 0.4366 0.0000
vt 0.8762 0.4300 0.0000
vt 0.8544 0.4757 0.0000
vt 0.8544 0.4464 0.0000
vt 0.9228 0.4695 0.0000
vt 0.9295 0.4513 0.0000
vt 0.9324 0.4569 0.0000
vt 0.4841 0.7865 0.0000
vt 0.5859 0.8240 0.0000
vt 0.4841 0.9683 0.0000
vt 0.6290 0.9070 0.0000
vt 0.6290 0.9126 0.0000
vt 0.4831 0.9902 0.0000
vt 0.3031 0.9901 0.0000
vt 0.2094 0.9901 0.0000
vt 0.4841 0.9417 0.0000
vt 0.6290 0.8907 0.0000
vt 0.6957 0.1804 0.0000
vt 0.7179 0.1748 0.0000
vt 0.7179 0.1804 0.0000
vt 0.9429 0.4733 0.0000
vt 0.9228 0.4980 0.0000
vt 0.6290 0.8659 0.0000
vt 0.5935 0.5423 0.0000
vt 0.5935 0.5210 0.0000
vt 0.6248 0.5210 0.0000
vt 0.6248 0.5423 0.0000
vt 0.8762 0.4980 0.0000
vt 0.8821 0.4958 0.0000
vt 0.9186 0.4958 0.0000
vt 0.9186 0.4717 0.0000
vt 0.8821 0.4717 0.0000
vt 0.8762 0.4695 0.0000
vt 0.6274 0.5134 0.0000
vt 0.5909 0.5134 0.0000
vt 0.5860 0.5196 0.0000
vt 0.5860 0.5436 0.0000
vt 0.5909 0.5497 0.0000
vt 0.6274 0.5497 0.0000
vt 0.6322 0.5436 0.0000
vt 0.6322 0.5196 0.0000
vt 0.8762 0.5400 0.0000
vt 0.9282 0.5400 0.0000
vt 0.9547 0.7790 0.0000
vt 0.9343 0.7790 0.0000
vt 0.9343 0.6560 0.0000
vt 0.9547 0.6560 0.0000
vt 0.5721 0.7243 0.0000
vt 0.5721 0.5680 0.0000
vt 0.4703 0.5680 0.0000
vt 0.4703 0.7246 0.0000
vt 0.7314 0.4835 0.0000
vt 0.7196 0.4886 0.0000
vt 0.9249 0.1444 0.0000
vt 0.8818 0.1733 0.0000
vt 0.9291 0.1733 0.0000
vt 0.9373 0.1682 0.0000
vt 0.2668 0.3331 0.0000
vt 0.2668 0.2978 0.0000
vt 0.2668 0.1804 0.0000
vt 0.4305 0.1804 0.0000
vt 0.0064 0.2156 0.0000
vt 0.0064 0.1803 0.0000
vt 0.0530 0.1803 0.0000
vt 0.0064 0.3330 0.0000
vt 0.2453 0.0679 0.0000
vt 0.2453 0.0808 0.0000
vt 0.0888 0.0808 0.0000
vt 0.0888 0.0679 0.0000
vt 0.7414 0.4464 0.0000
vt 0.7314 0.4366 0.0000
vt 0.8472 0.8272 0.0000
vt 0.8472 0.9194 0.0000
vt 0.6906 0.9194 0.0000
vt 0.6906 0.8272 0.0000
vt 0.5243 0.1804 0.0000
vt 0.6165 0.1804 0.0000
vt 0.8472 0.9985 0.0000
vt 0.8937 0.9194 0.0000
vt 0.8937 0.9985 0.0000
vt 0.8472 0.5474 0.0000
vt 0.8472 0.7334 0.0000
vt 0.6906 0.7334 0.0000
vt 0.6906 0.5474 0.0000
vt 0.8937 0.8272 0.0000
vt 0.8937 0.7334 0.0000
vt 0.8937 0.5474 0.0000
vt 0.2894 0.7246 0.0000
vt 0.2894 0.5680 0.0000
vt 0.1956 0.5680 0.0000
vt 0.1956 0.7246 0.0000
vt 0.1171 0.7865 0.0000
vt 0.3002 0.1154 0.0000
vt 0.3002 0.1652 0.0000
vt 0.0128 0.1652 0.0000
vt 0.0128 0.1154 0.0000
vt 0.9944 0.6868 0.0000
vt 0.9878 0.6868 0.0000
vt 0.0158 0.9417 0.0000
vt 0.1171 0.9417 0.0000
vt 0.1171 0.9683 0.0000
vt 0.0158 0.9683 0.0000
vt 0.1171 0.9901 0.0000
vt 0.0158 0.9901 0.0000
vt 0.3393 0.3449 0.0000
vt 0.3393 0.5014 0.0000
vt 0.1584 0.5014 0.0000
vt 0.1584 0.3449 0.0000
vt 0.4331 0.3449 0.0000
vt 0.4331 0.5014 0.0000
vt 0.6396 0.5014 0.0000
vt 0.5253 0.5014 0.0000
vt 0.5253 0.3449 0.0000
vt 0.6396 0.3449 0.0000
vt 0.0159 0.7965 0.0000
vt 0.0158 0.9139 0.0000
vt 0.0158 0.7865 0.0000
vt 0.4306 0.2978 0.0000
vt 0.4306 0.3331 0.0000
vt 0.5244 0.3331 0.0000
vt 0.5244 0.2978 0.0000
vt 0.7180 0.2978 0.0000
vt 0.6166 0.2978 0.0000
vt 0.6166 0.3331 0.0000
vt 0.7180 0.3331 0.0000
vt 0.4810 0.1154 0.0000
vt 0.9322 0.3302 0.0000
vt 0.9291 0.3302 0.0000
vt 0.9291 0.2179 0.0000
vt 0.9534 0.2179 0.0000
vt 0.2095 0.2156 0.0000
vt 0.2095 0.3330 0.0000
vt 0.1674 0.3330 0.0000
vt 0.1674 0.2156 0.0000
vt 0.7196 0.4300 0.0000
vt 0.7414 0.4757 0.0000
vt 0.6731 0.4695 0.0000
vt 0.6663 0.4513 0.0000
vt 0.6776 0.4441 0.0000
vt 0.7196 0.4695 0.0000
vt 0.6731 0.4980 0.0000
vt 0.6529 0.4733 0.0000
vt 0.6634 0.4569 0.0000
vt 0.7196 0.4980 0.0000
vt 0.6772 0.4958 0.0000
vt 0.7137 0.4958 0.0000
vt 0.6772 0.4717 0.0000
vt 0.7137 0.4717 0.0000
vt 0.9062 0.9342 0.0000
vt 0.9062 0.8402 0.0000
vt 0.9784 0.8402 0.0000
vt 0.9784 0.9342 0.0000
vt 0.9784 0.9655 0.0000
vt 0.9062 0.9655 0.0000
vt 0.6906 0.9985 0.0000
vt 0.7180 0.1804 0.0000
vt 0.8825 0.1444 0.0000
vt 0.2669 0.3331 0.0000
vt 0.2669 0.2978 0.0000
vt 0.4306 0.1804 0.0000
vt 0.2669 0.1804 0.0000
vt 0.2561 0.2156 0.0000
vt 0.2095 0.1803 0.0000
vt 0.2561 0.1803 0.0000
vt 0.2561 0.3330 0.0000
vt 0.0040 0.5014 0.0000
vt 0.0040 0.3449 0.0000
vt 0.1034 0.5680 0.0000
vt 0.1034 0.7246 0.0000
vt 0.9784 0.8089 0.0000
vt 0.9062 0.8089 0.0000
vt 0.5244 0.1804 0.0000
vt 0.6166 0.1804 0.0000
vt 0.6440 0.9985 0.0000
vt 0.6440 0.9194 0.0000
vt 0.6440 0.8272 0.0000
vt 0.6440 0.7334 0.0000
vt 0.6440 0.5474 0.0000
vt 0.2416 0.1009 0.0000
vt 0.0850 0.1009 0.0000
vt 0.0850 0.0965 0.0000
vt 0.2416 0.0965 0.0000
vt 0.8798 0.0331 0.0000
vt 0.7233 0.0331 0.0000
vt 0.7233 0.0107 0.0000
vt 0.8798 0.0107 0.0000
vt 0.7328 0.5696 0.0000
vt 0.6906 0.5696 0.0000
vt 0.0020 0.5680 0.0000
vt 0.0020 0.7246 0.0000
vt 0.5721 0.7765 0.0000
vt 0.4703 0.7806 0.0000
vt 0.5721 0.5161 0.0000
vt 0.4703 0.5120 0.0000
vt 0.2894 0.7806 0.0000
vt 0.1956 0.7806 0.0000
vt 0.1956 0.5120 0.0000
vt 0.2894 0.5120 0.0000
vt 0.1034 0.5120 0.0000
vt 0.1034 0.7806 0.0000
vt 0.2882 0.1009 0.0000
vt 0.2882 0.0965 0.0000
vt 0.0384 0.1009 0.0000
vt 0.9264 0.0331 0.0000
vt 0.9264 0.0107 0.0000
vt 0.6767 0.0108 0.0000
vt 0.6767 0.0331 0.0000
vt 0.0020 0.7712 0.0000
vt 0.0020 0.7806 0.0000
vt 0.0020 0.5214 0.0000
vt 0.8472 0.5696 0.0000
vt 0.8937 0.5696 0.0000
vt 0.6440 0.5696 0.0000
vt 0.7180 0.1748 0.0000
vt 0.9534 0.1929 0.0000
vt 0.2882 0.0909 0.0000
vt 0.3083 0.0909 0.0000
vt 0.2976 0.1009 0.0000
vt 0.0064 0.9139 0.0000
vt 0.0063 0.8017 0.0000
vt 0.0034 0.8007 0.0000
vt -0.0015 0.7893 0.0000
vt 0.7272 0.1855 0.0000
vt 0.7272 0.2978 0.0000
vt 0.7272 0.3424 0.0000
vt 0.2919 0.0679 0.0000
vt 0.3012 0.0772 0.0000
vt 0.2547 0.0772 0.0000
vt 0.8732 0.1827 0.0000
vt 0.8732 0.1351 0.0000
vt 0.0035 0.1559 0.0000
vt 0.0035 0.1136 0.0000
vt 0.0064 0.9874 0.0000
vt 0.0064 0.9636 0.0000
vt 0.0064 0.9390 0.0000
vt 0.7273 0.3424 0.0000
vt 0.7273 0.2978 0.0000
vt 0.7273 0.1855 0.0000
vt 0.0795 0.0772 0.0000
vt 0.0329 0.0772 0.0000
vt 0.0422 0.0679 0.0000
vt 0.9683 0.7925 0.0000
vt 0.9207 0.7925 0.0000
vt 0.9249 0.7883 0.0000
vt 0.9641 0.7883 0.0000
vt 0.9683 0.6424 0.0000
vt 0.9641 0.6467 0.0000
vt 0.9207 0.6424 0.0000
vt 0.9249 0.6467 0.0000
vt 0.9435 0.9903 0.0000
vt 0.9912 0.9903 0.0000
vt 0.0920 0.0840 0.0000
vt 0.2421 0.0840 0.0000
vt 0.6429 0.4982 0.0000
vt 0.6429 0.3481 0.0000
vt 0.0080 0.1108 0.0000
vt 0.0128 0.1045 0.0000
vt 0.2094 0.9968 0.0000
vt 0.1171 0.9968 0.0000
vt 0.4802 0.1043 0.0000
vt 0.6261 0.1119 0.0000
vt 0.3031 0.9968 0.0000
vt 0.4841 0.9968 0.0000
vt 0.0158 0.9968 0.0000
vt 0.4840 0.9968 0.0000
vt 0.6981 0.3444 0.0000
vt 0.7148 0.3632 0.0000
vt 0.6712 0.3632 0.0000
vt 0.6543 0.3444 0.0000
vt 0.7148 0.3735 0.0000
vt 0.6712 0.3735 0.0000
vt 0.6543 0.3735 0.0000
vt 0.7647 0.3355 0.0000
vt 0.7593 0.3442 0.0000
vt 0.7996 0.3691 0.0000
vt 0.8012 0.3580 0.0000
vt 0.8341 0.3564 0.0000
vt 0.8257 0.3513 0.0000
vt 0.5905 0.5971 0.0000
vt 0.5905 0.6333 0.0000
vt 0.6228 0.6333 0.0000
vt 0.6228 0.5971 0.0000
vt 0.6228 0.5682 0.0000
vt 0.5905 0.5682 0.0000
vt 0.9540 0.5572 0.0000
vt 0.9741 0.5767 0.0000
vt 0.9071 0.5768 0.0000
vt 0.9268 0.5572 0.0000
vt 0.4522 0.0082 0.0000
vt 0.4522 0.0210 0.0000
vt 0.4283 0.0210 0.0000
vt 0.4283 0.0082 0.0000
vt 0.3946 0.0210 0.0000
vt 0.3946 0.0082 0.0000
vt 0.3707 0.0210 0.0000
vt 0.3707 0.0082 0.0000
vt 0.5674 0.0082 0.0000
vt 0.5674 0.0210 0.0000
vt 0.5436 0.0210 0.0000
vt 0.5436 0.0082 0.0000
vt 0.5098 0.0210 0.0000
vt 0.5098 0.0082 0.0000
vt 0.4860 0.0210 0.0000
vt 0.4860 0.0082 0.0000
vt 0.9813 0.5736 0.0000
vt 0.9571 0.5500 0.0000
vt 0.9238 0.5500 0.0000
vt 0.9000 0.5739 0.0000
vt 0.9071 0.6046 0.0000
vt 0.9000 0.6076 0.0000
vt 0.9268 0.6243 0.0000
vt 0.9238 0.6315 0.0000
vt 0.9578 0.6314 0.0000
vt 0.9546 0.6243 0.0000
vt 0.9741 0.6046 0.0000
vt 0.9813 0.6074 0.0000
vt 0.6023 0.7870 0.0000
vt 0.6023 0.7803 0.0000
vt 0.6156 0.7803 0.0000
vt 0.6156 0.7870 0.0000
vt 0.2326 0.9090 0.0000
vt 0.2326 0.8959 0.0000
vt 0.2419 0.8959 0.0000
vt 0.2419 0.9090 0.0000
vt 0.9802 0.1812 0.0000
vt 0.9802 0.1879 0.0000
vt 0.9670 0.1879 0.0000
vt 0.9670 0.1812 0.0000
vt 0.2552 0.9090 0.0000
vt 0.2552 0.8959 0.0000
vt 0.2646 0.8959 0.0000
vt 0.2646 0.9090 0.0000
vt 0.9280 0.0564 0.0000
vt 0.9280 0.0631 0.0000
vt 0.9413 0.0631 0.0000
vt 0.9413 0.0564 0.0000
vt 0.2419 0.8463 0.0000
vt 0.2552 0.8463 0.0000
vt 0.2326 0.8463 0.0000
vt 0.5824 0.9733 0.0000
vt 0.5824 0.9866 0.0000
vt 0.5329 0.9866 0.0000
vt 0.5329 0.9733 0.0000
vt 0.2646 0.8463 0.0000
vt 0.9280 0.1282 0.0000
vt 0.9413 0.1282 0.0000
vt 0.9413 0.0787 0.0000
vt 0.9280 0.0787 0.0000
vt 0.5903 0.7701 0.0000
vt 0.6023 0.7647 0.0000
vt 0.5962 0.7830 0.0000
vt 0.6156 0.7647 0.0000
vt 0.6275 0.7701 0.0000
vt 0.6217 0.7830 0.0000
vt 0.2788 0.9023 0.0000
vt 0.2788 0.9090 0.0000
vt 0.9802 0.2041 0.0000
vt 0.9670 0.2041 0.0000
vt 0.2183 0.9090 0.0000
vt 0.2183 0.9023 0.0000
vt 0.6931 0.1677 0.0000
vt 0.6811 0.1731 0.0000
vt 0.6811 0.1575 0.0000
vt 0.6872 0.1547 0.0000
vt 0.6679 0.1731 0.0000
vt 0.6679 0.1575 0.0000
vt 0.6559 0.1677 0.0000
vt 0.6618 0.1547 0.0000
vt 0.9285 0.0564 0.0000
vt 0.9418 0.0564 0.0000
vt 0.9418 0.0631 0.0000
vt 0.9285 0.0631 0.0000
vt 0.9285 0.1282 0.0000
vt 0.9285 0.0787 0.0000
vt 0.9418 0.0787 0.0000
vt 0.9418 0.1282 0.0000
vt 0.6023 0.7871 0.0000
vt 0.6156 0.7871 0.0000
vt 0.9128 0.1256 0.0000
vt 0.9060 0.1256 0.0000
vt 0.9060 0.1123 0.0000
vt 0.9128 0.1123 0.0000
vt 0.6331 0.8204 0.0000
vt 0.6200 0.8204 0.0000
vt 0.6200 0.8110 0.0000
vt 0.6331 0.8110 0.0000
vt 0.6331 0.8430 0.0000
vt 0.6200 0.8430 0.0000
vt 0.6200 0.8337 0.0000
vt 0.6331 0.8337 0.0000
vt 0.2419 0.8660 0.0000
vt 0.2552 0.8660 0.0000
vt 0.2326 0.8781 0.0000
vt 0.8825 0.1256 0.0000
vt 0.8727 0.1123 0.0000
vt 0.8905 0.1123 0.0000
vt 0.8905 0.1256 0.0000
vt 0.6120 0.8204 0.0000
vt 0.6120 0.8110 0.0000
vt 0.6120 0.8337 0.0000
vt 0.6120 0.8430 0.0000
vt 0.2646 0.8686 0.0000
vt 0.5904 0.7701 0.0000
vt 0.6023 0.7648 0.0000
vt 0.5961 0.7831 0.0000
vt 0.6156 0.7648 0.0000
vt 0.6217 0.7831 0.0000
vt 0.6263 0.7968 0.0000
vt 0.6331 0.7968 0.0000
vt 0.2183 0.9022 0.0000
vt 0.6930 0.1677 0.0000
vt 0.6811 0.1730 0.0000
vt 0.6678 0.1730 0.0000
vt 0.6678 0.1575 0.0000
vt 0.6617 0.1547 0.0000
vt 0.2788 0.9022 0.0000
vt 0.6331 0.8572 0.0000
vt 0.6263 0.8572 0.0000
vt 0.8979 0.2409 0.0000
vt 0.9177 0.2409 0.0000
vt 0.9177 0.3007 0.0000
vt 0.8979 0.3007 0.0000
vt 0.8135 0.0645 0.0000
vt 0.8135 0.1096 0.0000
vt 0.8733 0.0983 0.0000
vt 0.8733 0.0645 0.0000
vt 0.8954 0.3287 0.0000
vt 0.9115 0.3287 0.0000
vt 0.9023 0.3361 0.0000
vt 0.8920 0.3361 0.0000
vt 0.9012 0.0930 0.0000
vt 0.9086 0.0929 0.0000
vt 0.9086 0.0704 0.0000
vt 0.9012 0.0670 0.0000
vt 0.7347 0.0606 0.0000
vt 0.7328 0.0678 0.0000
vt 0.7451 0.0782 0.0000
vt 0.7525 0.0745 0.0000
vt 0.7609 0.1399 0.0000
vt 0.7609 0.0927 0.0000
vt 0.7526 0.0952 0.0000
vt 0.7524 0.1414 0.0000
vt 0.7293 0.0753 0.0000
vt 0.7355 0.0806 0.0000
vt 0.6935 0.0608 0.0000
vt 0.6980 0.0681 0.0000
vt 0.7082 0.0681 0.0000
vt 0.7127 0.0608 0.0000
vt 0.9629 0.3517 0.0000
vt 0.9854 0.3517 0.0000
vt 0.9854 0.3579 0.0000
vt 0.9629 0.3579 0.0000
vt 0.9629 0.3221 0.0000
vt 0.9854 0.3221 0.0000
vt 0.9854 0.3324 0.0000
vt 0.9629 0.3324 0.0000
vt 0.8954 0.2165 0.0000
vt 0.9115 0.2165 0.0000
vt 0.9115 0.2348 0.0000
vt 0.8954 0.2348 0.0000
vt 0.8954 0.3068 0.0000
vt 0.9115 0.3068 0.0000
vt 0.8760 0.3287 0.0000
vt 0.8516 0.3287 0.0000
vt 0.8516 0.3068 0.0000
vt 0.8760 0.3068 0.0000
vt 0.7890 0.0670 0.0000
vt 0.7890 0.1142 0.0000
vt 0.8074 0.1107 0.0000
vt 0.8074 0.0670 0.0000
vt 0.8794 0.0670 0.0000
vt 0.8794 0.0971 0.0000
vt 0.8491 0.3007 0.0000
vt 0.8785 0.3007 0.0000
vt 0.8785 0.2409 0.0000
vt 0.8733 0.0462 0.0000
vt 0.8135 0.0462 0.0000
vt 0.9086 0.0512 0.0000
vt 0.9012 0.0487 0.0000
vt 0.8719 0.3361 0.0000
vt 0.7153 0.0534 0.0000
vt 0.7438 0.0988 0.0000
vt 0.9854 0.3761 0.0000
vt 0.9629 0.3761 0.0000
vt 0.8760 0.2348 0.0000
vt 0.8760 0.2165 0.0000
vt 0.8074 0.0487 0.0000
vt 0.7890 0.0487 0.0000
vt 0.8794 0.0487 0.0000
vt 0.9854 0.4144 0.0000
vt 0.9629 0.4186 0.0000
vt 0.6689 0.1032 0.0000
vt 0.7414 0.1032 0.0000
vt 0.7414 0.1387 0.0000
vt 0.6689 0.1387 0.0000
vt 0.8402 0.1328 0.0000
vt 0.7838 0.1328 0.0000
vt 0.8040 0.1255 0.0000
vt 0.8200 0.1255 0.0000
vt 0.8491 0.2409 0.0000
vt 0.8558 0.3361 0.0000
vt 0.8516 0.2348 0.0000
vt 0.8516 0.2165 0.0000
vt 0.8298 0.2409 0.0000
vt 0.8298 0.3007 0.0000
vt 0.8100 0.3007 0.0000
vt 0.8100 0.2409 0.0000
vt 0.8323 0.3287 0.0000
vt 0.8356 0.3361 0.0000
vt 0.8254 0.3361 0.0000
vt 0.8161 0.3287 0.0000
vt 0.6715 0.0606 0.0000
vt 0.6572 0.0745 0.0000
vt 0.6646 0.0782 0.0000
vt 0.6769 0.0678 0.0000
vt 0.6909 0.0534 0.0000
vt 0.6488 0.1399 0.0000
vt 0.6573 0.1414 0.0000
vt 0.6571 0.0952 0.0000
vt 0.6488 0.0927 0.0000
vt 0.6742 0.0806 0.0000
vt 0.6803 0.0753 0.0000
vt 0.9629 0.3027 0.0000
vt 0.9629 0.2966 0.0000
vt 0.9854 0.2966 0.0000
vt 0.9854 0.3027 0.0000
vt 0.8323 0.2165 0.0000
vt 0.8323 0.2348 0.0000
vt 0.8161 0.2348 0.0000
vt 0.8161 0.2165 0.0000
vt 0.8161 0.3068 0.0000
vt 0.8323 0.3068 0.0000
vt 0.6659 0.0988 0.0000
vt 0.9854 0.2784 0.0000
vt 0.9629 0.2784 0.0000
vt 0.9629 0.2358 0.0000
vt 0.9854 0.2401 0.0000
vt 0.6659 0.1414 0.0000
vt 0.7438 0.1414 0.0000
vt 0.8917 0.2091 0.0000
vt 0.9040 0.2091 0.0000
vt 0.8734 0.2091 0.0000
vt 0.8236 0.2091 0.0000
vt 0.8359 0.2091 0.0000
vt 0.8543 0.2091 0.0000
vt 0.7606 0.2591 0.0000
vt 0.7605 0.1982 0.0000
vt 0.7391 0.1982 0.0000
vt 0.7391 0.2591 0.0000
vt 0.9593 0.1193 0.0000
vt 0.9593 0.1383 0.0000
vt 0.9811 0.1383 0.0000
vt 0.9811 0.1181 0.0000
vt 0.7778 0.4186 0.0000
vt 0.7778 0.3944 0.0000
vt 0.7271 0.4098 0.0000
vt 0.7262 0.4168 0.0000
vt 0.7178 0.4190 0.0000
vt 0.7178 0.4111 0.0000
vt 0.7011 0.4034 0.0000
vt 0.7011 0.4294 0.0000
vt 0.7700 0.2796 0.0000
vt 0.7391 0.2796 0.0000
vt 0.7234 0.4047 0.0000
vt 0.7778 0.3861 0.0000
vt 0.7778 0.3797 0.0000
vt 0.7061 0.3966 0.0000
vt 0.7881 0.1982 0.0000
vt 0.6947 0.3897 0.0000
vt 0.6728 0.3935 0.0000
vt 0.6967 0.3973 0.0000
vt 0.6699 0.4294 0.0000
vt 0.7391 0.3107 0.0000
vt 0.7750 0.3079 0.0000
vt 0.7785 0.2869 0.0000
vt 0.7933 0.1982 0.0000
vt 0.9811 0.1451 0.0000
vt 0.9593 0.1451 0.0000
vt 0.9593 0.1677 0.0000
vt 0.9811 0.1677 0.0000
vt 0.6506 0.4310 0.0000
vt 0.7375 0.3301 0.0000
vt 0.9524 0.1399 0.0000
vt 0.9881 0.1399 0.0000
vt 0.9881 0.1171 0.0000
vt 0.7799 0.3062 0.0000
vt 0.7831 0.2872 0.0000
vt 0.6450 0.4315 0.0000
vt 0.6676 0.3933 0.0000
vt 0.7752 0.3131 0.0000
vt 0.7371 0.3357 0.0000
vt 0.9811 0.1161 0.0000
vt 0.9593 0.1161 0.0000
vt 0.9593 0.0303 0.0000
vt 0.9811 0.0303 0.0000
vt 0.6956 0.3896 0.0000
vt 0.7778 0.3752 0.0000
vt 0.7790 0.2839 0.0000
vt 0.9881 0.0303 0.0000
vt 0.9881 0.1161 0.0000
vt 0.7836 0.2840 0.0000
vt 0.7979 0.1982 0.0000
vt 0.3423 0.0577 0.0000
vt 0.3423 0.0697 0.0000
vt 0.5885 0.0697 0.0000
vt 0.5885 0.0577 0.0000
vt 0.6369 0.0697 0.0000
vt 0.6368 0.0577 0.0000
vt 0.3423 0.0975 0.0000
vt 0.6122 0.0975 0.0000
vt 0.5879 0.0904 0.0000
vt 0.3423 0.0904 0.0000
vt 0.3423 0.0303 0.0000
vt 0.3423 0.0371 0.0000
vt 0.5879 0.0371 0.0000
vt 0.6119 0.0300 0.0000
vt 0.6369 0.1004 0.0000
vt 0.6367 0.0270 0.0000
vt 0.6120 0.0975 0.0000
vt 0.8587 0.3698 0.0000
vt 0.8356 0.3762 0.0000
vt 0.8426 0.4014 0.0000
vt 0.8636 0.3874 0.0000
vt 0.8678 0.3933 0.0000
vt 0.8718 0.3869 0.0000
vt 0.8668 0.3675 0.0000
vt 0.8480 0.4058 0.0000
vt 0.9031 0.3689 0.0000
vt 0.9037 0.3908 0.0000
vt 0.8959 0.4089 0.0000
vt 0.9035 0.3991 0.0000
vt 0.6039 0.7008 0.0000
vt 0.6115 0.6839 0.0000
vt 0.5854 0.6839 0.0000
vt 0.5853 0.7008 0.0000
vt 0.6104 0.7058 0.0000
vt 0.6105 0.7499 0.0000
vt 0.6255 0.7499 0.0000
vt 0.6175 0.6897 0.0000
vt 0.8412 0.4077 0.0000
vt 0.8165 0.3815 0.0000
vt 0.8260 0.4161 0.0000
vt 0.5854 0.6556 0.0000
vt 0.6250 0.6862 0.0000
vt 0.6212 0.6556 0.0000
vt 0.6172 0.6797 0.0000
vt 0.4878 0.2260 0.0000
vt 0.4878 0.2860 0.0000
vt 0.4808 0.2860 0.0000
vt 0.4808 0.2265 0.0000
vt 0.2373 0.8264 0.0000
vt 0.2373 0.8146 0.0000
vt 0.2590 0.8146 0.0000
vt 0.2590 0.8264 0.0000
vt 0.4808 0.1917 0.0000
vt 0.5165 0.1917 0.0000
vt 0.5095 0.1963 0.0000
vt 0.4878 0.1963 0.0000
vt 0.6258 0.9665 0.0000
vt 0.6021 0.9665 0.0000
vt 0.6021 0.9460 0.0000
vt 0.6258 0.9460 0.0000
vt 0.8111 0.3863 0.0000
vt 0.8191 0.4154 0.0000
vt 0.6318 0.9704 0.0000
vt 0.6275 0.9753 0.0000
vt 0.6004 0.9753 0.0000
vt 0.5961 0.9704 0.0000
vt 0.6188 0.6508 0.0000
vt 0.5885 0.6508 0.0000
vt 0.4851 0.1868 0.0000
vt 0.5122 0.1868 0.0000
vt 0.5961 0.9421 0.0000
vt 0.6318 0.9421 0.0000
vt 0.2615 0.8049 0.0000
vt 0.2348 0.8049 0.0000
vt 0.2687 0.8313 0.0000
vt 0.2687 0.8097 0.0000
vt 0.2348 0.8367 0.0000
vt 0.2615 0.8367 0.0000
vt 0.2276 0.8097 0.0000
vt 0.2276 0.8313 0.0000
vt 0.8094 0.3886 0.0000
vt 0.8165 0.4143 0.0000
vt 0.7945 0.3927 0.0000
vt 0.7924 0.3914 0.0000
vt 0.8016 0.4184 0.0000
vt 0.8005 0.4206 0.0000
vt 0.6026 0.7088 0.0000
vt 0.6026 0.7499 0.0000
vt 0.5853 0.7088 0.0000
vt 0.5853 0.7499 0.0000
vt 0.5095 0.2234 0.0000
vt 0.5095 0.2860 0.0000
vt 0.8515 0.4187 0.0000
vt 0.8951 0.4231 0.0000
vt 0.5165 0.2223 0.0000
vt 0.5165 0.2860 0.0000
vt 0.6245 0.6816 0.0000
vt 0.4458 0.2766 0.0000
vt 0.4388 0.2812 0.0000
vt 0.4388 0.2566 0.0000
vt 0.4458 0.2560 0.0000
vt 0.4676 0.2766 0.0000
vt 0.4741 0.2812 0.0000
vt 0.4702 0.2860 0.0000
vt 0.4431 0.2860 0.0000
vt 0.4676 0.2551 0.0000
vt 0.8440 0.4179 0.0000
vt 0.4741 0.2551 0.0000
vt 0.8050 0.5696 0.0000
vt 0.8505 0.1417 0.0000
vt 0.7735 0.1417 0.0000
vt 0.8595 0.1840 0.0000
vt 0.7645 0.1840 0.0000
vt 0.7645 0.1609 0.0000
vt 0.8595 0.1609 0.0000
vt 0.7004 0.0746 0.0000
vt 0.7099 0.0746 0.0000
vt 0.7279 0.0813 0.0000
vt 0.6824 0.0813 0.0000
vt 0.7336 0.0862 0.0000
vt 0.6767 0.0862 0.0000
vt 0.6677 0.5400 0.0000
vt 0.6546 0.5243 0.0000
vt 0.7193 0.5243 0.0000
vt 0.7200 0.5400 0.0000
vt 0.6529 0.4980 0.0000
vt 0.7196 0.4441 0.0000
vt 0.8762 0.4441 0.0000
vt 0.9183 0.4441 0.0000
vt 0.4388 0.1869 0.0000
vt 0.4458 0.1869 0.0000
vt 0.4676 0.1869 0.0000
vt 0.4741 0.1869 0.0000
vt 0.6329 0.7499 0.0000
vt 0.0020 0.5120 0.0000
vt 0.0109 0.9919 0.0000
# 813 texture coords

o Target
g Target
usemtl wire_087225087
s 1
f 1/1 2/2 3/3 
f 4/4 5/5 6/6 7/7 
f 2/2 8/8 9/9 3/3 
s 2
f 10/10 9/9 5/5 11/11 
s 1
f 12/12 13/13 14/14 15/15 
f 16/16 17/17 18/18 19/19 
s 4
f 5/20 20/21 13/22 6/23 
s 2
f 6/23 13/22 12/24 8/25 
s 4
f 9/26 8/25 12/24 21/27 
s 8
f 9/28 21/29 20/30 5/31 
s 2
f 22/32 23/33 24/34 25/35 
s 4
f 1/36 26/37 27/38 
s 2
f 28/39 29/40 30/41 31/42 
s 4
f 32/43 33/44 34/45 35/46 
s 1
f 36/47 37/48 38/49 39/50 
f 31/51 37/48 40/52 28/53 
f 41/54 42/55 25/56 24/57 
f 43/58 44/59 45/60 46/61 
s 2
f 47/62 48/63 49/64 50/65 
f 51/66 52/67 53/68 54/69 
s 1
f 52/70 55/71 56/72 53/73 
s 2
f 36/74 57/75 58/76 37/77 
s 1
f 57/75 59/78 60/79 58/76 
s 8
f 61/80 62/81 63/82 
s 2
f 3/3 64/83 65/84 1/1 
f 66/85 63/86 62/87 67/88 
f 68/89 69/90 50/65 49/64 
f 63/86 66/85 70/91 71/92 
s 1
f 72/93 33/94 32/95 
s 8
f 61/80 63/82 71/96 73/97 
s 1
f 71/92 70/91 2/2 27/98 
f 70/91 48/63 8/8 2/2 
f 74/99 75/100 76/101 77/102 
s 8
f 39/103 78/104 79/105 73/97 
f 73/97 79/105 80/106 61/80 
f 61/80 80/106 81/107 38/108 
f 38/108 81/107 78/104 39/103 
s 2
f 78/109 76/101 75/100 79/110 
s 4
f 79/111 75/100 74/99 80/112 
s 2
f 80/113 74/99 77/102 81/114 
s 4
f 81/115 77/102 76/101 78/116 
f 82/117 26/37 1/36 65/118 
s 1
f 83/119 84/120 85/121 86/122 
f 87/123 82/124 88/125 89/126 
s 2
f 90/127 57/75 36/74 91/128 
s 1
f 19/19 72/93 32/95 16/16 
f 92/129 93/130 94/131 95/132 
f 96/133 97/134 12/12 15/15 
f 97/134 98/135 21/136 12/12 
s 2
f 97/137 96/138 99/139 51/66 
f 98/140 97/137 51/66 54/69 
s 4
f 46/141 45/142 100/143 101/144 
f 60/79 102/145 103/146 58/76 
f 104/147 105/148 106/149 107/150 
s 1
f 13/13 19/19 18/18 14/14 
f 20/151 108/152 19/19 13/13 
s 4
f 46/153 105/148 18/154 17/155 
f 99/156 109/157 110/158 111/159 
f 14/160 18/154 105/148 104/147 
f 14/160 104/147 109/157 15/161 
f 15/161 109/157 99/156 96/162 
s 1
f 112/163 113/164 114/165 115/166 
s 2
f 9/9 10/10 64/83 3/3 
f 116/167 11/11 5/5 4/4 
f 117/168 29/40 28/39 118/169 
f 23/33 117/168 118/169 24/34 
f 25/35 43/170 119/171 22/32 
s 1
f 40/52 120/172 118/173 28/53 
f 120/172 41/54 24/57 118/173 
f 43/58 25/56 42/55 44/59 
s 2
f 121/174 122/175 123/176 124/177 
f 122/175 47/62 50/65 123/176 
f 66/85 49/64 48/63 70/91 
f 125/178 126/179 124/177 123/176 
f 69/90 125/178 123/176 50/65 
f 49/64 66/85 67/88 68/89 
s 4
f 127/180 120/181 40/182 128/183 
f 127/180 129/184 41/185 120/181 
f 44/186 42/187 130/188 131/189 
s 1
f 8/8 48/63 47/62 6/6 
f 6/6 47/62 122/175 7/7 
f 35/190 4/4 7/7 132/191 
s 2
f 34/192 116/167 4/4 35/190 
s 1
f 7/7 122/175 121/174 132/191 
s 8
f 133/148 134/149 135/150 136/147 
s 1
f 137/1 138/2 139/98 
f 140/4 141/7 142/6 143/5 
f 138/2 144/3 145/9 146/8 
s 2
f 147/10 148/11 143/5 145/9 
s 1
f 149/193 150/194 151/195 152/196 
f 153/197 154/198 155/199 156/200 
s 4
f 143/20 142/23 152/22 157/21 
s 2
f 142/23 146/25 149/24 152/22 
s 4
f 145/26 158/27 149/24 146/25 
s 8
f 145/29 143/30 157/31 158/28 
s 2
f 159/34 160/33 161/32 162/35 
f 163/39 164/42 165/41 166/201 
s 1
f 167/202 168/203 169/204 170/205 
f 91/47 171/50 172/49 173/48 
f 164/51 163/53 128/52 173/48 
f 129/54 159/57 162/56 130/55 
f 100/60 131/59 174/58 101/61 
s 2
f 175/62 176/65 177/64 178/63 
f 179/206 180/207 181/208 182/209 
s 1
f 182/70 181/73 183/72 184/71 
s 2
f 91/128 173/210 103/146 90/127 
s 1
f 90/127 103/146 102/145 185/211 
s 8
f 186/212 187/213 165/214 172/215 
s 2
f 144/3 137/1 188/84 189/83 
f 190/85 191/88 187/87 192/86 
f 176/65 193/90 194/89 177/64 
f 192/86 195/92 196/91 190/85 
s 8
f 186/212 197/216 195/217 192/218 
s 1
f 195/92 139/98 138/2 196/91 
f 196/91 138/2 146/8 178/63 
f 198/102 199/99 200/100 201/101 
s 8
f 171/219 197/216 202/220 203/221 
f 197/216 186/212 204/222 202/220 
f 186/212 172/215 205/223 204/222 
f 172/215 171/219 203/221 205/223 
s 2
f 203/110 202/109 201/101 200/100 
s 4
f 202/116 204/115 198/102 201/101 
s 2
f 204/114 205/113 199/99 198/102 
s 4
f 205/112 203/111 200/100 199/99 
f 129/184 130/188 42/187 41/185 
s 2
f 185/211 102/145 60/79 59/78 
f 103/146 173/210 37/77 58/76 
f 184/224 183/225 56/226 55/227 
s 16
f 39/103 171/219 91/128 36/74 
s 4
f 52/228 182/229 184/224 55/227 
f 90/127 185/211 59/78 57/75 
s 8
f 134/149 133/148 206/153 207/230 
f 208/158 209/157 136/147 135/150 
s 1
f 210/231 211/93 154/198 153/197 
f 212/129 213/130 214/232 
f 215/233 150/194 149/193 216/234 
f 216/234 149/193 158/235 217/236 
s 2
f 216/237 179/206 111/238 215/239 
f 217/240 180/207 179/206 216/237 
s 4
f 40/182 37/241 173/242 128/183 
s 2
f 99/139 52/67 51/66 
s 1
f 218/243 219/244 115/166 114/165 
s 8
f 53/245 56/226 183/225 181/246 
s 1
f 152/196 151/195 155/199 154/198 
f 157/247 152/196 154/198 220/248 
s 4
f 101/230 156/249 155/250 106/149 
f 104/147 107/150 110/158 109/157 
f 106/149 105/148 46/153 101/230 
f 151/251 107/150 106/149 155/250 
f 151/251 150/252 110/158 107/150 
f 150/252 215/253 111/159 110/158 
s 1
f 113/164 112/163 89/126 88/125 
s 2
f 145/9 144/3 189/83 147/10 
f 221/167 140/4 143/5 148/11 
f 163/39 166/201 222/168 223/169 
f 223/169 222/168 160/33 159/34 
f 224/171 174/170 162/35 161/32 
s 1
f 128/52 163/53 223/173 127/172 
f 127/172 223/173 159/57 129/54 
f 130/55 162/56 174/58 131/59 
s 2
f 225/174 226/177 227/176 228/175 
f 228/175 227/176 176/65 175/62 
f 190/85 196/91 178/63 177/64 
f 226/177 229/179 230/178 227/176 
f 227/176 230/178 193/90 176/65 
f 191/88 190/85 177/64 194/89 
s 1
f 146/8 142/6 175/62 178/63 
f 142/6 141/7 228/175 175/62 
f 231/190 232/191 141/7 140/4 
s 2
f 233/192 231/190 140/4 221/167 
s 1
f 141/7 232/191 225/174 228/175 
s 4
f 234/254 235/255 236/256 237/257 
s 8
f 237/258 236/259 207/260 206/261 
f 53/262 208/158 54/263 
s 1
f 219/244 218/243 235/264 234/265 
f 188/266 87/123 89/126 189/267 
f 88/125 82/124 65/268 64/269 
f 147/270 112/163 115/166 148/271 
f 11/272 114/165 113/164 10/273 
s 8
f 220/154 133/148 136/147 157/160 
f 20/251 135/150 134/149 108/250 
f 108/250 134/149 207/230 72/249 
f 211/155 206/153 133/148 220/154 
f 21/252 208/158 135/150 20/251 
f 157/160 136/147 209/157 158/161 
s 1
f 116/274 218/243 114/165 11/272 
f 148/271 115/166 219/244 221/275 
f 10/273 113/164 88/125 64/269 
f 189/267 89/126 112/163 147/270 
s 4
f 238/276 234/254 237/257 239/277 
f 33/44 236/256 235/255 240/278 
s 8
f 239/279 237/258 206/261 211/280 
f 72/281 207/260 236/259 33/282 
s 1
f 219/244 238/283 233/284 221/275 
f 235/264 218/243 240/285 
s 8
f 158/161 209/157 180/286 217/287 
f 98/288 54/263 208/158 21/252 
s 1
f 211/93 210/231 239/289 
f 95/132 94/131 241/204 242/290 
f 243/132 244/290 169/204 245/131 
f 241/204 246/203 247/202 248/205 
s 4
f 210/291 231/292 233/293 239/277 
s 8
f 132/191 248/294 247/295 35/190 
s 16
f 35/190 247/295 246/296 32/297 
s 2
f 32/95 246/298 241/299 16/16 
f 16/16 241/299 94/300 17/17 
s 8
f 17/301 94/302 93/303 46/141 
s 16
f 46/304 93/130 249/232 43/305 
s 4
f 249/306 92/307 119/171 43/170 
s 8
f 126/179 92/308 95/309 124/177 
f 124/177 95/309 242/310 121/174 
f 121/174 242/310 248/294 132/191 
s 2
f 156/200 245/311 169/312 153/197 
f 153/197 169/312 168/313 210/231 
s 8
f 210/297 168/296 167/295 231/190 
s 16
f 231/190 167/295 170/294 232/191 
f 232/191 170/294 244/310 225/174 
f 225/174 244/310 243/309 226/177 
f 243/309 212/308 229/179 226/177 
s 4
f 224/171 212/307 214/306 174/170 
s 8
f 174/305 214/232 213/130 101/304 
s 16
f 101/144 213/314 245/315 156/316 
s 1
f 250/317 251/318 252/319 253/320 
f 254/321 250/317 253/320 255/322 
f 256/323 254/321 255/322 257/324 
f 251/318 256/323 257/324 252/319 
s 2
f 252/319 84/120 83/119 253/320 
s 4
f 253/320 83/119 86/122 255/322 
s 2
f 255/322 86/122 85/121 257/324 
s 4
f 257/324 85/121 84/120 252/319 
s 2
f 250/325 45/60 44/59 251/326 
s 8
f 254/327 100/143 45/142 250/328 
s 2
f 256/326 131/59 100/60 254/325 
s 8
f 251/329 44/186 131/189 256/330 
s 2
f 119/171 258/331 126/332 
f 229/332 259/331 224/171 
f 23/333 22/334 125/178 69/90 
f 30/41 29/40 67/335 62/336 
f 69/90 68/89 117/337 23/333 
f 29/338 117/337 68/89 67/88 
f 22/334 119/339 126/179 125/178 
f 161/334 160/333 193/90 230/178 
f 166/201 165/41 187/336 191/335 
f 194/89 193/90 160/333 222/337 
f 222/337 166/340 191/88 194/89 
f 224/339 161/334 230/178 229/179 
s 8
f 260/341 261/342 262/343 263/344 
s 4
f 261/342 264/345 265/346 262/343 
s 16
f 262/343 265/346 266/347 263/344 
s off
f 264/348 267/349 268/350 265/351 
f 265/351 268/350 269/352 266/353 
s 4
f 268/354 267/355 270/356 271/357 
s 8
f 272/341 273/344 274/343 275/342 
s 4
f 275/342 274/343 276/346 277/345 
s 16
f 274/343 273/344 278/347 276/346 
s off
f 277/348 276/351 271/350 270/349 
f 276/351 278/353 279/352 271/350 
s 1
f 279/358 269/359 268/354 271/357 
s 8
f 280/341 281/344 282/343 283/342 
s 4
f 283/342 282/343 284/346 285/345 
s 16
f 282/343 281/344 286/347 284/346 
s off
f 285/348 284/351 287/350 288/349 
f 284/351 286/353 289/352 287/350 
s 4
f 287/354 290/357 291/356 288/355 
s 8
f 292/341 293/342 294/343 295/344 
s 4
f 293/342 296/345 297/346 294/343 
s 16
f 294/343 297/346 298/347 295/344 
s off
f 296/348 291/349 290/350 297/351 
f 297/351 290/350 299/352 298/353 
s 1
f 299/358 290/357 287/354 289/359 
f 300/360 301/361 302/362 303/363 
s 8
f 304/364 305/365 306/366 307/367 
f 307/367 306/366 308/368 309/369 
f 309/369 308/368 310/370 311/371 
f 312/372 313/373 314/374 315/375 
f 315/375 314/374 316/376 317/377 
f 317/377 316/376 318/378 319/379 
f 319/379 318/378 305/365 304/364 
s 1
f 320/361 321/362 322/363 323/360 
s off
f 307/380 301/361 300/360 304/381 
f 304/381 300/360 303/363 319/382 
f 319/382 303/363 302/362 317/383 
f 317/383 302/362 324/384 315/385 
f 315/385 324/384 325/386 312/387 
f 311/388 326/389 327/390 309/391 
f 309/391 327/390 301/361 307/380 
f 305/382 322/363 321/362 306/383 
f 306/383 321/362 328/384 308/385 
f 308/385 328/384 329/386 310/387 
f 313/388 330/389 331/390 314/391 
f 314/391 331/390 320/361 316/380 
f 316/380 320/361 323/360 318/381 
f 318/381 323/360 322/363 305/382 
s 1
f 332/361 333/362 334/363 335/360 
s 8
f 336/379 337/377 338/376 339/378 
f 337/377 340/375 341/374 338/376 
f 340/375 342/372 343/373 341/374 
f 344/371 345/369 346/368 347/370 
f 345/369 348/367 349/366 346/368 
f 348/367 350/364 351/365 349/366 
f 350/364 336/379 339/378 351/365 
s 1
f 352/360 353/361 354/362 355/363 
s off
f 337/383 336/382 334/363 333/362 
f 336/382 350/381 335/360 334/363 
f 350/381 348/380 332/361 335/360 
f 348/380 345/391 356/390 332/361 
f 345/391 344/388 357/389 356/390 
f 342/387 340/385 358/384 359/386 
f 340/385 337/383 333/362 358/384 
f 339/381 338/380 353/361 352/360 
f 338/380 341/391 360/390 353/361 
f 341/391 343/388 361/389 360/390 
f 347/387 346/385 362/384 363/386 
f 346/385 349/383 354/362 362/384 
f 349/383 351/382 355/363 354/362 
f 351/382 339/381 352/360 355/363 
s 8
f 364/392 365/393 366/394 367/395 
f 368/396 369/397 370/398 371/399 
f 372/400 373/401 374/402 375/403 
f 376/404 377/405 378/406 379/407 
f 380/396 381/397 382/398 383/399 
f 384/408 385/409 386/410 387/411 
f 388/404 389/405 390/406 391/407 
f 392/412 393/413 389/405 370/398 
f 394/414 392/412 370/398 369/397 
f 395/415 394/416 369/417 378/418 
f 396/413 395/419 378/406 377/405 
f 397/412 396/413 377/405 382/398 
f 398/414 397/412 382/398 381/397 
f 399/420 398/421 381/422 390/423 
f 393/413 399/419 390/406 389/405 
s off
f 371/424 370/425 365/393 364/426 
f 370/425 389/427 366/394 365/393 
f 389/427 388/428 367/429 366/394 
f 379/407 378/406 373/430 372/431 
f 378/432 369/433 374/402 373/401 
f 369/397 368/396 375/434 374/435 
f 383/436 382/437 400/438 401/439 
f 382/437 377/440 402/441 400/438 
f 377/440 376/442 403/443 402/441 
f 391/407 390/406 385/430 384/431 
f 390/423 381/422 386/410 385/409 
f 381/397 380/396 387/434 386/435 
s 8
f 404/395 405/392 406/393 407/394 
f 408/407 409/404 410/405 411/406 
f 412/403 413/400 414/401 415/402 
f 416/399 417/396 418/397 419/398 
f 420/407 421/404 422/405 423/406 
f 424/444 425/445 426/446 427/447 
f 428/399 429/396 430/397 431/398 
f 432/413 410/405 431/398 433/412 
f 434/419 411/406 410/405 432/413 
f 435/415 418/418 411/417 434/416 
f 436/412 419/398 418/397 435/414 
f 437/413 422/405 419/398 436/412 
f 438/419 423/406 422/405 437/413 
f 439/448 430/449 423/450 438/451 
f 433/412 431/398 430/397 439/414 
s off
f 409/428 404/429 407/394 410/427 
f 410/427 407/394 406/393 431/425 
f 431/425 406/393 405/426 428/424 
f 417/396 412/434 415/435 418/397 
f 418/433 415/402 414/401 411/432 
f 411/406 414/430 413/431 408/407 
f 421/442 440/443 441/441 422/440 
f 422/440 441/441 442/438 419/437 
f 419/437 442/438 443/439 416/436 
f 429/396 424/434 427/435 430/397 
f 430/449 427/447 426/446 423/450 
f 423/406 426/430 425/431 420/407 
s 8
f 444/341 445/344 446/343 447/342 
s 4
f 447/342 446/343 448/346 449/345 
s 16
f 446/343 445/344 450/347 448/346 
s off
f 449/348 448/351 451/350 452/349 
f 448/351 450/353 453/352 451/350 
s 4
f 454/355 452/356 451/357 455/354 
s 8
f 456/341 457/342 458/343 459/344 
s 4
f 457/342 460/345 461/346 458/343 
s 16
f 458/343 461/346 462/347 459/344 
s off
f 460/348 454/349 455/350 461/351 
f 461/351 455/350 463/352 462/353 
s 1
f 451/357 453/358 463/359 455/354 
s 8
f 464/341 465/342 466/343 467/344 
s 4
f 465/342 468/345 469/346 466/343 
s 16
f 466/343 469/346 470/347 467/344 
s off
f 468/348 471/349 472/350 469/351 
f 469/351 472/350 473/352 470/353 
s 4
f 474/355 475/354 472/357 471/356 
s 8
f 476/341 477/344 478/343 479/342 
s 4
f 479/342 478/343 480/346 481/345 
s 16
f 478/343 477/344 482/347 480/346 
s off
f 481/348 480/351 475/350 474/349 
f 480/351 482/353 483/352 475/350 
s 1
f 472/357 475/354 483/359 473/358 
f 484/360 485/361 486/362 487/363 
s 8
f 488/364 489/365 490/366 491/367 
f 491/367 490/366 492/368 493/369 
f 493/369 492/368 494/370 495/371 
f 496/372 497/373 498/374 499/375 
f 499/375 498/374 500/376 501/377 
f 501/377 500/376 502/378 503/379 
f 503/379 502/378 489/365 488/364 
s 1
f 504/361 505/362 506/363 507/360 
s off
f 491/380 485/361 484/360 488/381 
f 488/381 484/360 487/363 503/382 
f 503/382 487/363 486/362 501/383 
f 501/383 486/362 508/384 499/385 
f 499/385 508/384 509/386 496/387 
f 495/388 510/389 511/390 493/391 
f 493/391 511/390 485/361 491/380 
f 489/382 506/363 505/362 490/383 
f 490/383 505/362 512/384 492/385 
f 492/385 512/384 513/386 494/387 
f 497/388 514/389 515/390 498/391 
f 498/391 515/390 504/361 500/380 
f 500/380 504/361 507/360 502/381 
f 502/381 507/360 506/363 489/382 
s 1
f 516/361 517/362 518/363 519/360 
s 8
f 520/379 521/377 522/376 523/378 
f 521/377 524/375 525/374 522/376 
f 524/375 526/372 527/373 525/374 
f 528/371 529/369 530/368 531/370 
f 529/369 532/367 533/366 530/368 
f 532/367 534/364 535/365 533/366 
f 534/364 520/379 523/378 535/365 
s 1
f 536/360 537/361 538/362 539/363 
s off
f 521/383 520/382 518/363 517/362 
f 520/382 534/381 519/360 518/363 
f 534/381 532/380 516/361 519/360 
f 532/380 529/391 540/390 516/361 
f 529/391 528/388 541/389 540/390 
f 526/387 524/385 542/384 543/386 
f 524/385 521/383 517/362 542/384 
f 523/381 522/380 537/361 536/360 
f 522/380 525/391 544/390 537/361 
f 525/391 527/388 545/389 544/390 
f 531/387 530/385 546/384 547/386 
f 530/385 533/383 538/362 546/384 
f 533/383 535/382 539/363 538/362 
f 535/382 523/381 536/360 539/363 
s 8
f 548/452 549/393 550/394 551/453 
f 552/396 553/397 554/398 555/399 
f 556/454 557/455 558/456 559/457 
f 560/458 561/459 562/460 563/461 
f 564/462 565/463 566/464 567/465 
f 568/457 569/456 570/455 571/454 
f 572/404 573/405 574/406 575/407 
f 576/466 577/467 573/405 554/398 
f 578/468 576/466 554/398 553/397 
f 579/469 578/470 553/471 562/472 
f 580/473 579/474 562/460 561/459 
f 581/475 580/473 561/459 566/464 
f 582/476 581/475 566/464 565/463 
f 583/470 582/469 565/472 574/471 
f 577/467 583/477 574/406 573/405 
s off
f 555/478 554/479 549/393 548/480 
f 554/479 573/481 550/394 549/393 
f 573/481 572/428 551/482 550/394 
f 563/461 562/460 557/483 556/484 
f 562/472 553/471 558/456 557/455 
f 553/397 552/396 559/434 558/485 
f 567/486 566/487 584/438 585/439 
f 566/487 561/488 586/489 584/438 
f 561/488 560/442 587/490 586/489 
f 575/407 574/406 569/491 568/431 
f 574/471 565/472 570/455 569/456 
f 565/463 564/462 571/492 570/493 
s 8
f 588/453 589/452 590/393 591/394 
f 592/396 593/399 594/398 595/397 
f 596/454 597/457 598/456 599/455 
f 600/465 601/462 602/463 603/464 
f 604/461 605/458 606/459 607/460 
f 608/457 609/454 610/455 611/456 
f 612/404 613/407 614/406 615/405 
f 616/466 594/398 615/405 617/467 
f 618/468 595/397 594/398 616/466 
f 619/469 602/472 595/471 618/470 
f 620/475 603/464 602/463 619/476 
f 621/473 606/459 603/464 620/475 
f 622/474 607/460 606/459 621/473 
f 623/470 614/471 607/472 622/469 
f 617/467 615/405 614/406 623/477 
s off
f 593/428 588/482 591/394 594/481 
f 594/481 591/394 590/393 615/479 
f 615/479 590/393 589/480 612/478 
f 601/462 596/492 599/493 602/463 
f 602/472 599/455 598/456 595/471 
f 595/397 598/485 597/434 592/396 
f 605/442 624/490 625/489 606/488 
f 606/488 625/489 626/438 603/487 
f 603/487 626/438 627/439 600/486 
f 613/407 608/431 611/491 614/406 
f 614/471 611/456 610/455 607/472 
f 607/460 610/483 609/484 604/461 
s 1
f 628/494 629/495 630/496 631/497 
f 632/498 633/499 634/500 635/501 
s 2
f 636/502 637/503 638/504 639/505 
f 640/506 641/507 642/508 643/509 
s 1
f 644/510 645/511 646/512 647/513 
f 648/514 649/515 650/516 651/517 
s 2
f 645/511 652/518 653/519 646/512 
f 654/520 655/521 656/522 657/523 
s 1
f 652/524 658/525 659/526 653/527 
f 655/528 660/529 661/530 656/531 
s 2
f 644/532 647/533 662/534 663/535 
s 1
f 637/503 636/502 664/536 665/537 
f 666/538 667/539 668/540 669/541 
s 2
f 649/542 648/543 670/544 671/545 
s 1
f 640/506 643/509 672/546 673/547 
s 4
f 628/494 663/535 662/534 629/495 
s 2
f 665/537 664/536 631/497 630/496 
f 669/541 668/540 674/548 675/549 
s 4
f 671/545 670/544 633/499 632/498 
s 2
f 672/546 635/501 634/500 673/547 
s 1
f 628/494 631/497 675/549 676/550 
f 630/551 629/552 632/498 635/501 
s 2
f 638/553 637/554 643/509 642/508 
f 677/555 666/538 636/502 639/505 
s 1
f 645/511 644/510 678/556 657/523 
f 650/516 649/515 647/513 646/512 
s 2
f 652/518 645/511 657/523 656/522 
f 679/557 650/516 646/512 653/519 
s 1
f 658/525 652/524 656/531 661/530 
f 680/558 679/559 653/527 659/526 
s 2
f 644/532 663/535 681/560 678/561 
f 662/562 647/563 649/542 671/545 
s 1
f 637/554 665/564 672/546 643/509 
f 664/536 636/502 666/538 669/541 
s 4
f 663/535 628/494 676/550 681/560 
f 629/552 662/562 671/545 632/498 
s 2
f 665/564 630/551 635/501 672/546 
f 631/497 664/536 669/541 675/549 
s 1
f 679/559 680/558 682/565 683/566 
s 2
f 680/567 684/568 685/569 682/570 
s 1
f 639/571 686/572 687/573 677/574 
f 676/550 675/549 674/548 688/575 
s 2
f 677/555 687/576 667/539 666/538 
f 678/561 681/560 689/577 690/578 
s 4
f 681/560 676/550 688/575 689/577 
s 1
f 691/579 692/580 693/581 694/582 
f 695/498 696/501 697/500 698/499 
s 2
f 699/583 686/584 700/585 701/586 
f 702/506 703/509 704/508 705/507 
s 1
f 706/587 707/588 708/589 709/590 
f 654/520 657/523 678/556 690/591 
f 710/592 711/593 712/594 713/595 
s 2
f 709/590 708/589 714/596 715/597 
s 1
f 715/598 714/599 716/600 717/601 
s 2
f 706/602 718/603 719/604 707/605 
s 1
f 701/586 720/606 721/607 699/583 
s 2
f 713/542 722/545 723/544 710/543 
s 1
f 702/506 724/547 725/546 703/509 
s 4
f 691/579 694/582 719/604 718/603 
s 2
f 720/606 693/581 692/580 721/607 
s 4
f 722/545 695/498 698/499 723/544 
s 2
f 725/546 724/547 697/500 696/501 
s 1
f 691/579 688/575 674/548 692/580 
f 693/551 696/501 695/498 694/552 
s 2
f 700/553 704/508 703/509 701/554 
f 687/576 686/584 699/583 667/539 
s 1
f 709/590 654/520 690/591 706/587 
f 712/594 708/589 707/588 713/595 
s 2
f 715/597 655/521 654/520 709/590 
f 726/608 714/596 708/589 712/594 
s 1
f 717/601 660/529 655/528 715/598 
f 684/609 716/600 714/599 726/610 
s 2
f 706/602 690/578 689/577 718/603 
f 719/562 722/545 713/542 707/563 
s 1
f 701/554 703/509 725/546 720/564 
f 721/607 668/540 667/539 699/583 
s 4
f 718/603 689/577 688/575 691/579 
f 694/552 695/498 722/545 719/562 
s 2
f 720/564 725/546 696/501 693/551 
f 692/580 674/548 668/540 721/607 
s 1
f 726/610 727/611 685/612 684/609 
s 2
f 726/608 712/594 711/593 727/613 
f 651/517 650/516 679/557 683/614 
s 1
f 728/494 729/495 730/496 731/497 
f 732/498 733/499 734/500 735/501 
s 2
f 736/502 737/503 738/504 739/505 
f 740/506 741/507 742/508 743/509 
s 1
f 744/532 745/615 746/616 747/533 
f 748/592 749/595 750/594 751/593 
s 2
f 745/590 752/597 753/596 746/589 
f 754/523 755/522 756/521 757/520 
s 1
f 752/524 758/525 759/526 753/527 
f 755/528 760/529 761/530 756/531 
s 2
f 744/532 747/533 762/534 763/535 
s 1
f 737/503 736/502 764/536 765/537 
f 766/538 767/539 768/540 769/541 
s 2
f 749/542 748/543 770/544 771/545 
s 1
f 740/506 743/509 772/546 773/547 
s 4
f 728/494 763/535 762/534 729/495 
s 2
f 765/537 764/536 731/497 730/496 
f 769/541 768/540 774/548 775/549 
s 4
f 771/545 770/544 733/499 732/498 
s 2
f 772/546 735/501 734/500 773/547 
s 1
f 728/494 731/497 775/549 776/550 
f 730/551 729/552 732/498 735/501 
s 2
f 738/553 737/554 743/509 742/508 
f 777/555 766/538 736/502 739/505 
s 1
f 745/615 744/532 778/561 757/617 
f 750/594 749/595 747/588 746/589 
s 2
f 752/597 745/590 757/520 756/521 
f 779/608 750/594 746/589 753/596 
s 1
f 758/525 752/524 756/531 761/530 
f 780/558 779/559 753/527 759/526 
s 2
f 744/532 763/535 781/560 778/561 
f 762/562 747/563 749/542 771/545 
s 1
f 737/554 765/564 772/546 743/509 
f 764/536 736/502 766/538 769/541 
s 4
f 763/535 728/494 776/550 781/560 
f 729/552 762/562 771/545 732/498 
s 2
f 765/564 730/551 735/501 772/546 
f 731/497 764/536 769/541 775/549 
s 1
f 779/559 780/558 782/565 783/566 
s 2
f 780/567 784/568 785/569 782/570 
s 1
f 739/571 786/572 787/573 777/574 
f 776/550 775/549 774/548 788/575 
s 2
f 777/555 787/576 767/539 766/538 
f 778/561 781/560 789/577 790/578 
s 4
f 781/560 776/550 788/575 789/577 
s 1
f 791/579 792/580 793/581 794/582 
f 795/498 796/501 797/500 798/499 
s 2
f 799/583 786/584 800/585 801/586 
f 802/506 803/509 804/508 805/507 
s 1
f 806/602 807/605 808/618 809/619 
f 754/620 757/617 778/561 790/578 
f 810/514 811/517 812/516 813/515 
s 2
f 809/511 808/512 814/519 815/518 
s 1
f 815/598 814/599 816/600 817/601 
s 2
f 806/602 818/603 819/604 807/605 
s 1
f 801/586 820/606 821/607 799/583 
s 2
f 813/542 822/545 823/544 810/543 
s 1
f 802/506 824/547 825/546 803/509 
s 4
f 791/579 794/582 819/604 818/603 
s 2
f 820/606 793/581 792/580 821/607 
s 4
f 822/545 795/498 798/499 823/544 
s 2
f 825/546 824/547 797/500 796/501 
s 1
f 791/579 788/575 774/548 792/580 
f 793/551 796/501 795/498 794/552 
s 2
f 800/553 804/508 803/509 801/554 
f 787/576 786/584 799/583 767/539 
s 1
f 809/619 754/620 790/578 806/602 
f 812/516 808/512 807/513 813/515 
s 2
f 815/518 755/522 754/523 809/511 
f 826/557 814/519 808/512 812/516 
s 1
f 817/601 760/529 755/528 815/598 
f 784/609 816/600 814/599 826/610 
s 2
f 806/602 790/578 789/577 818/603 
f 819/562 822/545 813/542 807/563 
s 1
f 801/554 803/509 825/546 820/564 
f 821/607 768/540 767/539 799/583 
s 4
f 818/603 789/577 788/575 791/579 
f 794/552 795/498 822/545 819/562 
s 2
f 820/564 825/546 796/501 793/551 
f 792/580 774/548 768/540 821/607 
s 1
f 826/610 827/611 785/612 784/609 
s 2
f 826/557 812/516 811/517 827/614 
f 751/593 750/594 779/608 783/613 
s 1
f 828/579 829/580 830/581 831/582 
f 832/498 833/501 834/500 835/499 
s 2
f 836/583 837/584 838/585 839/586 
f 840/506 841/509 842/508 843/507 
s 1
f 844/602 845/605 846/618 847/619 
f 848/514 849/517 850/516 851/515 
s 2
f 847/511 846/512 852/519 853/518 
f 854/520 855/523 856/522 857/521 
s 1
f 853/598 852/599 858/600 859/601 
f 857/531 856/528 860/529 861/530 
s 2
f 844/602 862/603 863/604 845/605 
s 1
f 839/586 864/606 865/607 836/583 
f 866/539 867/540 868/541 869/538 
s 2
f 851/542 870/545 871/544 848/543 
s 1
f 840/506 872/547 873/546 841/509 
s 4
f 828/579 831/582 863/604 862/603 
s 2
f 864/606 830/581 829/580 865/607 
f 867/540 874/548 875/549 868/541 
s 4
f 870/545 832/498 835/499 871/544 
s 2
f 873/546 872/547 834/500 833/501 
s 1
f 828/579 876/575 874/548 829/580 
f 830/551 833/501 832/498 831/552 
s 2
f 838/553 842/508 841/509 839/554 
f 877/576 837/584 836/583 866/539 
s 1
f 847/619 855/620 878/578 844/602 
f 850/516 846/512 845/513 851/515 
s 2
f 853/518 856/522 855/523 847/511 
f 879/557 852/519 846/512 850/516 
s 1
f 859/601 860/529 856/528 853/598 
f 880/609 858/600 852/599 879/610 
s 2
f 844/602 878/578 881/577 862/603 
f 863/562 870/545 851/542 845/563 
s 1
f 839/554 841/509 873/546 864/564 
f 865/607 867/540 866/539 836/583 
s 4
f 862/603 881/577 876/575 828/579 
f 831/552 832/498 870/545 863/562 
s 2
f 864/564 873/546 833/501 830/551 
f 829/580 874/548 867/540 865/607 
s 1
f 879/610 882/611 883/612 880/609 
s 2
f 884/570 885/567 880/568 883/569 
s 1
f 886/574 887/571 837/572 877/573 
f 876/575 888/550 875/549 874/548 
s 2
f 877/576 866/539 869/538 886/555 
f 878/578 889/561 890/560 881/577 
s 4
f 881/577 890/560 888/550 876/575 
s 1
f 891/494 892/495 893/496 894/497 
f 895/498 896/499 897/500 898/501 
s 2
f 899/502 900/503 901/504 887/505 
f 902/506 903/507 904/508 905/509 
s 1
f 906/532 907/615 908/616 909/533 
f 854/617 889/561 878/578 855/620 
f 910/592 911/595 912/594 913/593 
s 2
f 907/590 914/597 915/596 908/589 
s 1
f 914/524 916/525 917/526 915/527 
s 2
f 906/532 909/533 918/534 919/535 
s 1
f 900/503 899/502 920/536 921/537 
s 2
f 911/542 910/543 922/544 923/545 
s 1
f 902/506 905/509 924/546 925/547 
s 4
f 891/494 919/535 918/534 892/495 
s 2
f 921/537 920/536 894/497 893/496 
s 4
f 923/545 922/544 896/499 895/498 
s 2
f 924/546 898/501 897/500 925/547 
s 1
f 891/494 894/497 875/549 888/550 
f 893/551 892/552 895/498 898/501 
s 2
f 901/553 900/554 905/509 904/508 
f 886/555 869/538 899/502 887/505 
s 1
f 907/615 906/532 889/561 854/617 
f 912/594 911/595 909/588 908/589 
s 2
f 914/597 907/590 854/520 857/521 
f 926/608 912/594 908/589 915/596 
s 1
f 916/525 914/524 857/531 861/530 
f 885/558 926/559 915/527 917/526 
s 2
f 906/532 919/535 890/560 889/561 
f 918/562 909/563 911/542 923/545 
s 1
f 900/554 921/564 924/546 905/509 
f 920/536 899/502 869/538 868/541 
s 4
f 919/535 891/494 888/550 890/560 
f 892/552 918/562 923/545 895/498 
s 2
f 921/564 893/551 898/501 924/546 
f 894/497 920/536 868/541 875/549 
s 1
f 926/559 885/558 884/565 927/566 
s 2
f 926/608 927/613 913/593 912/594 
f 849/517 882/614 879/557 850/516 
s 1
f 928/579 929/580 930/581 931/582 
f 932/498 933/501 934/500 935/499 
s 2
f 936/583 937/584 938/585 939/586 
f 940/506 941/509 942/508 943/507 
s 1
f 944/602 945/605 946/618 947/619 
f 948/514 949/517 950/516 951/515 
s 2
f 947/511 946/512 952/519 953/518 
f 954/520 955/523 956/522 957/521 
s 1
f 953/598 952/599 958/600 959/601 
f 957/531 956/528 960/529 961/530 
s 2
f 944/602 962/603 963/604 945/605 
s 1
f 939/586 964/606 965/607 936/583 
f 966/539 967/540 968/541 969/538 
s 2
f 951/542 970/545 971/544 948/543 
s 1
f 940/506 972/547 973/546 941/509 
s 4
f 928/579 931/582 963/604 962/603 
s 2
f 964/606 930/581 929/580 965/607 
f 967/540 974/548 975/549 968/541 
s 4
f 970/545 932/498 935/499 971/544 
s 2
f 973/546 972/547 934/500 933/501 
s 1
f 928/579 976/575 974/548 929/580 
f 930/551 933/501 932/498 931/552 
s 2
f 938/553 942/508 941/509 939/554 
f 977/576 937/584 936/583 966/539 
s 1
f 947/619 955/620 978/578 944/602 
f 950/516 946/512 945/513 951/515 
s 2
f 953/518 956/522 955/523 947/511 
f 979/557 952/519 946/512 950/516 
s 1
f 959/601 960/529 956/528 953/598 
f 980/609 958/600 952/599 979/610 
s 2
f 944/602 978/578 981/577 962/603 
f 963/562 970/545 951/542 945/563 
s 1
f 939/554 941/509 973/546 964/564 
f 965/607 967/540 966/539 936/583 
s 4
f 962/603 981/577 976/575 928/579 
f 931/552 932/498 970/545 963/562 
s 2
f 964/564 973/546 933/501 930/551 
f 929/580 974/548 967/540 965/607 
s 1
f 979/610 982/611 983/612 980/609 
s 2
f 984/570 985/567 980/568 983/569 
s 1
f 986/574 987/571 937/572 977/573 
f 976/575 988/550 975/549 974/548 
s 2
f 977/576 966/539 969/538 986/555 
f 978/578 989/561 990/560 981/577 
s 4
f 981/577 990/560 988/550 976/575 
s 1
f 991/494 992/495 993/496 994/497 
f 995/498 996/499 997/500 998/501 
s 2
f 999/502 1000/503 1001/504 987/505 
f 1002/506 1003/507 1004/508 1005/509 
s 1
f 1006/532 1007/615 1008/616 1009/533 
f 954/617 989/561 978/578 955/620 
f 1010/592 1011/595 1012/594 1013/593 
s 2
f 1007/590 1014/597 1015/596 1008/589 
s 1
f 1014/524 1016/525 1017/526 1015/527 
s 2
f 1006/532 1009/533 1018/534 1019/535 
s 1
f 1000/503 999/502 1020/536 1021/537 
s 2
f 1011/542 1010/543 1022/544 1023/545 
s 1
f 1002/506 1005/509 1024/546 1025/547 
s 4
f 991/494 1019/535 1018/534 992/495 
s 2
f 1021/537 1020/536 994/497 993/496 
s 4
f 1023/545 1022/544 996/499 995/498 
s 2
f 1024/546 998/501 997/500 1025/547 
s 1
f 991/494 994/497 975/549 988/550 
f 993/551 992/552 995/498 998/501 
s 2
f 1001/553 1000/554 1005/509 1004/508 
f 986/555 969/538 999/502 987/505 
s 1
f 1007/615 1006/532 989/561 954/617 
f 1012/594 1011/595 1009/588 1008/589 
s 2
f 1014/597 1007/590 954/520 957/521 
f 1026/608 1012/594 1008/589 1015/596 
s 1
f 1016/525 1014/524 957/531 961/530 
f 985/558 1026/559 1015/527 1017/526 
s 2
f 1006/532 1019/535 990/560 989/561 
f 1018/562 1009/563 1011/542 1023/545 
s 1
f 1000/554 1021/564 1024/546 1005/509 
f 1020/536 999/502 969/538 968/541 
s 4
f 1019/535 991/494 988/550 990/560 
f 992/552 1018/562 1023/545 995/498 
s 2
f 1021/564 993/551 998/501 1024/546 
f 994/497 1020/536 968/541 975/549 
s 1
f 1026/559 985/558 984/565 1027/566 
s 2
f 1026/608 1027/613 1013/593 1012/594 
f 949/517 982/614 979/557 950/516 
s 1
f 1028/621 1029/622 1030/623 1031/624 
f 1032/625 1033/626 1034/627 1035/628 
f 1036/629 1037/630 1038/631 1039/632 
f 1040/633 1041/634 1042/635 1043/636 
s 2
f 1044/637 1028/621 1031/624 1045/638 
s 1
f 1046/639 1047/640 1048/641 1049/642 
s 4
f 1050/643 1029/622 1028/621 1044/637 
s 2
f 1051/644 1052/645 1053/646 
f 1053/646 1054/647 1042/635 
s 1
f 1044/637 1045/638 1055/648 1056/649 
f 1044/637 1057/650 1058/651 1050/643 
f 1059/652 1060/653 1061/654 1062/655 
s 2
f 1052/645 1063/656 1054/647 
s 1
f 1055/648 1064/657 1056/649 
f 1041/634 1038/631 1046/639 
s 2
f 1042/635 1049/642 1053/646 
f 1060/653 1033/626 1056/658 
s 4
f 1034/627 1052/659 1051/660 1035/628 
s 1
f 1033/626 1060/653 1059/652 1034/627 
s 2
f 1057/650 1056/649 1033/661 1032/662 
s 1
f 1038/631 1041/634 1040/633 1039/632 
f 1037/630 1047/640 1046/639 1038/631 
f 1041/634 1046/639 1049/642 1042/635 
s 4
f 1062/663 1063/656 1052/645 1059/664 
s 2
f 1060/665 1056/649 1064/657 1061/666 
s 4
f 1052/659 1034/627 1059/652 
s 1
f 1065/621 1066/624 1067/623 1068/622 
f 1069/667 1070/668 1071/669 1072/670 
f 1073/629 1074/632 1075/631 1076/630 
f 1077/633 1078/636 1079/635 1080/634 
s 2
f 1081/637 1082/638 1066/624 1065/621 
s 1
f 1083/639 1084/642 1085/641 1086/640 
s 4
f 1087/643 1081/637 1065/621 1068/622 
s 2
f 1084/642 1088/671 1089/672 1085/641 
f 1090/646 1091/647 1092/645 
s 1
f 1081/637 1093/649 1094/648 1082/638 
f 1081/637 1095/673 1093/649 
f 1096/652 1097/655 1098/654 1099/653 
s 2
f 1092/645 1091/647 1100/656 
s 1
f 1094/648 1093/649 1101/657 
f 1080/634 1083/639 1075/631 
s 2
f 1079/635 1090/646 1084/642 
f 1099/653 1093/658 1102/626 
s 4
f 1069/667 1072/670 1089/674 1088/675 
s 1
f 1102/626 1103/627 1096/652 1099/653 
s 2
f 1070/676 1095/673 1104/651 1071/677 
s 1
f 1075/631 1074/632 1077/633 1080/634 
f 1076/630 1075/631 1083/639 1086/640 
f 1080/634 1079/635 1084/642 1083/639 
s 4
f 1097/663 1096/664 1092/645 1100/656 
s 2
f 1099/665 1098/666 1101/657 1093/649 
s 4
f 1092/659 1096/652 1103/627 
s 1
f 1105/678 1106/679 1107/680 1108/681 
f 1109/682 1110/683 1108/681 1107/680 
f 1111/684 1112/685 1113/686 1114/687 
f 1115/688 1116/689 1117/690 1118/691 
s 2
f 1108/681 1117/690 1116/689 1105/678 
f 1106/679 1114/687 1113/686 1107/680 
f 1107/680 1113/686 1112/685 1109/692 
f 1117/690 1108/681 1110/693 1118/691 
s 1
f 1119/678 1120/681 1121/680 1122/679 
f 1123/682 1121/680 1120/681 1124/683 
f 1125/684 1126/687 1127/686 1128/694 
f 1129/688 1130/691 1131/690 1132/689 
s 2
f 1120/681 1119/678 1132/689 1131/690 
f 1122/679 1121/680 1127/686 1126/687 
f 1121/680 1123/692 1128/694 1127/686 
f 1131/690 1130/691 1124/693 1120/681 
s 1
f 1133/695 1134/696 1135/697 1136/698 
f 1136/698 1137/699 1138/700 
f 1138/700 1139/701 1133/695 1136/698 
f 1136/698 1135/697 1140/702 1137/699 
f 1141/703 1139/701 1138/700 1142/704 
f 1137/699 1140/702 1143/705 1144/706 
f 1138/700 1137/699 1144/706 1142/704 
f 1145/707 1146/708 1147/709 1148/710 
f 1149/711 1150/712 1151/713 1152/714 
s 2
f 1153/715 1154/716 1155/717 
f 1147/709 1146/708 1156/718 
f 1152/714 1157/719 1158/720 1159/721 
f 1135/697 1153/715 1140/702 
s 4
f 1160/722 1161/723 1162/724 1163/725 
s 1
f 1164/726 1165/727 1166/728 1167/729 
s 8
f 1155/730 1158/731 1168/732 1169/733 
s 1
f 1170/734 1171/735 1172/736 1173/737 
f 1154/716 1174/738 1175/739 1155/717 
s 4
f 1156/740 1176/741 1174/742 1154/743 
s 1
f 1158/720 1177/744 1176/745 1156/718 
s 16
f 1155/730 1175/746 1177/747 1158/731 
s 8
f 1154/743 1134/748 1172/736 1171/735 
s 4
f 1134/748 1147/749 1173/737 1172/736 
s 8
f 1147/749 1156/740 1170/734 1173/737 
s 4
f 1156/740 1154/743 1171/735 1170/734 
s 2
f 1178/750 1166/728 1165/727 1179/751 
s 8
f 1180/752 1167/729 1166/728 1178/753 
s 2
f 1181/754 1164/726 1167/729 1180/755 
s 4
f 1179/756 1165/727 1164/726 1181/757 
s 2
f 1178/758 1179/759 1175/739 1174/738 
s 8
f 1180/760 1178/758 1174/738 1176/761 
s 2
f 1181/762 1180/760 1176/761 1177/763 
s 4
f 1179/759 1181/762 1177/763 1175/739 
s 1
f 1149/711 1145/707 1182/764 
s 2
f 1152/714 1159/721 1146/708 
s 1
f 1182/764 1183/765 1150/712 1149/711 
f 1184/766 1182/764 1145/707 1148/710 
f 1146/708 1145/707 1149/711 1152/714 
f 1182/764 1184/766 1185/767 1183/765 
f 1160/722 1186/768 1187/769 1161/723 
s 2
f 1143/705 1140/702 1163/770 1162/771 
s 4
f 1186/768 1157/772 1188/773 1187/769 
s 1
f 1189/698 1190/697 1191/696 
f 1189/698 1192/700 1193/699 
f 1189/698 1193/699 1194/702 1190/697 
f 1195/703 1196/704 1192/700 
f 1193/699 1197/706 1198/705 1194/702 
f 1192/700 1196/704 1197/706 1193/699 
f 1199/707 1200/710 1201/709 1202/708 
f 1203/711 1204/714 1205/713 1206/712 
s 2
f 1207/715 1208/716 1190/697 
f 1201/709 1209/718 1202/708 
f 1210/721 1211/774 1204/714 
f 1190/697 1194/702 1207/715 
s 4
f 1212/775 1213/776 1214/777 1215/778 
s 1
f 1216/729 1217/726 1218/727 1219/728 
s 8
f 1213/776 1212/775 1220/779 1221/780 
s 1
f 1222/735 1223/736 1224/737 1225/734 
f 1208/716 1213/717 1226/739 1227/738 
s 4
f 1209/743 1208/740 1227/741 1228/742 
s 1
f 1221/720 1209/718 1228/745 1229/744 
s 16
f 1213/776 1221/780 1229/781 1226/782 
s 8
f 1208/740 1225/734 1224/737 1191/749 
s 4
f 1191/749 1224/737 1223/736 1201/748 
s 8
f 1201/748 1223/736 1222/735 1209/743 
s 4
f 1209/743 1222/735 1225/734 1208/740 
s 2
f 1230/751 1231/750 1219/728 1218/727 
s 8
f 1232/757 1230/756 1218/727 1217/726 
s 2
f 1233/755 1232/754 1217/726 1216/729 
s 4
f 1231/753 1233/752 1216/729 1219/728 
s 2
f 1230/758 1227/738 1226/739 1231/759 
s 8
f 1232/760 1228/761 1227/738 1230/758 
s 2
f 1233/762 1229/763 1228/761 1232/760 
s 4
f 1231/759 1226/739 1229/763 1233/762 
s 1
f 1203/711 1234/764 1199/707 
s 2
f 1204/714 1202/708 1210/721 
s 1
f 1234/764 1203/711 1206/712 1235/765 
f 1236/766 1200/710 1199/707 1234/764 
f 1202/708 1204/714 1203/711 1199/707 
f 1234/764 1235/765 1237/767 1236/766 
f 1220/779 1212/775 1215/778 1238/783 
s 2
f 1214/784 1213/717 1207/715 
s 4
f 1211/785 1221/780 1220/779 1238/783 
s 1
f 92/129 249/232 93/130 
f 212/129 243/132 245/131 213/130 
f 241/204 248/205 242/290 
f 244/290 170/205 169/204 
f 211/93 220/248 154/198 
f 19/19 108/152 72/93 
s 8
f 181/786 180/286 209/157 
f 53/262 181/786 209/157 208/158 
s 2
f 111/238 182/209 52/67 99/139 
f 111/238 179/206 182/209 
s 1
f 638/787 700/788 686/572 639/571 
f 641/789 705/790 704/791 642/792 
f 642/792 704/791 700/788 638/787 
f 738/787 800/788 786/572 739/571 
f 742/792 804/791 800/788 738/787 
f 741/789 805/790 804/791 742/792 
s 2
f 661/793 660/794 717/795 658/796 
f 658/796 717/795 716/797 659/798 
f 659/798 716/797 684/568 680/567 
f 759/798 816/797 784/568 780/567 
s 1
f 356/390 358/384 333/362 332/361 
f 357/389 359/386 358/384 356/390 
s 2
f 758/796 817/795 816/797 759/798 
f 761/793 760/794 817/795 758/796 
s 1
f 541/389 543/386 542/384 540/390 
f 540/390 542/384 517/362 516/361 
f 544/390 546/384 538/362 537/361 
f 545/389 547/386 546/384 544/390 
f 360/390 362/384 354/362 353/361 
f 361/389 363/386 362/384 360/390 
f 1003/789 943/790 942/791 1004/792 
f 1004/792 942/791 938/788 1001/787 
f 1001/787 938/788 937/572 987/571 
f 903/789 843/790 842/791 904/792 
f 330/389 329/386 328/384 331/390 
f 331/390 328/384 321/362 320/361 
f 326/389 325/386 324/384 327/390 
f 327/390 324/384 302/362 301/361 
s 2
f 961/793 960/794 959/795 1016/796 
f 1016/796 959/795 958/797 1017/798 
f 1017/798 958/797 980/568 985/567 
f 917/798 858/797 880/568 885/567 
f 917/798 916/796 859/795 858/797 
s 1
f 514/389 513/386 512/384 515/390 
f 510/389 509/386 508/384 511/390 
f 515/390 512/384 505/362 504/361 
s 2
f 861/793 860/794 859/795 916/796 
s 1
f 511/390 508/384 486/362 485/361 
s 4
f 188/799 137/800 1239/801 87/802 
f 1239/801 197/216 171/219 
f 82/117 87/802 1239/801 26/37 
f 1239/801 171/219 39/103 26/37 
f 26/37 39/103 73/97 27/38 
f 1239/801 137/800 139/803 197/216 
s 8
f 165/214 164/804 172/215 
f 186/212 192/218 187/213 
f 197/216 139/803 195/217 
f 38/108 31/805 30/806 
f 61/80 38/108 30/806 62/81 
f 71/96 27/38 73/97 
s 1
f 137/1 144/3 138/2 
f 1/1 27/98 2/2 
s 4
f 33/44 240/278 34/45 
f 233/293 238/276 239/277 
s 1
f 901/787 838/788 837/572 887/571 
f 904/792 842/791 838/788 901/787 
s 2
f 1054/647 1043/636 1042/635 
f 1053/646 1052/645 1054/647 
f 1079/635 1078/636 1091/647 
f 1090/646 1079/635 1091/647 
f 1208/716 1191/696 1190/697 
f 1207/715 1213/717 1208/716 
f 1135/697 1134/696 1154/716 
f 1153/715 1135/697 1154/716 
f 1090/646 1092/645 1088/671 
s 4
f 1088/675 1092/659 1103/627 1069/667 
s 1
f 1103/627 1102/626 1070/668 1069/667 
s 2
f 1102/661 1093/649 1095/673 1070/676 
s 1
f 1081/637 1087/643 1104/651 1095/673 
s 2
f 1207/715 1194/702 1214/784 
s 4
f 1240/807 1241/808 1215/778 1214/777 
s 1
f 1241/808 1242/809 1238/783 1215/778 
s 4
f 1238/783 1242/809 1243/810 1211/785 
s 2
f 1210/721 1221/720 1211/774 
f 1209/718 1210/721 1202/708 
f 1209/718 1221/720 1210/721 
f 1153/715 1155/717 1163/770 1140/702 
s 4
f 1163/725 1155/730 1169/733 1160/722 
s 1
f 1169/733 1168/732 1186/768 1160/722 
s 4
f 1168/732 1158/731 1157/772 1186/768 
s 2
f 1152/714 1151/713 1188/811 1157/719 
f 1243/811 1205/713 1204/714 1211/774 
s 1
f 219/244 234/265 238/283 
f 116/274 34/812 240/285 218/243 
s 2
f 1194/702 1198/705 1240/771 1214/784 
s 1
f 172/49 164/51 173/48 
s 2
f 1084/642 1090/646 1088/671 
s 8
f 126/179 258/813 92/308 
s 4
f 224/171 259/331 212/307 
s 16
f 212/308 259/813 229/179 
s 4
f 92/307 258/331 119/171 
s 1
f 37/48 31/51 38/49 
s 2
f 1053/646 1049/642 1051/644 
s 4
f 1244/674 1245/670 1035/628 1051/660 
s 1
f 1035/628 1245/670 1246/669 1032/625 
s 2
f 1032/662 1246/677 1058/651 1057/650 
s 1
f 1044/637 1056/649 1057/650 
s 2
f 1049/642 1048/641 1244/672 1051/644 
f 1146/708 1159/721 1158/720 1156/718 
# 1002 polygons - 84 triangles

