# Max2Obj Version 4.0 Mar 10th, 2001
#
# object objStaticMeshActor1 to come ...
#
v  -22.299070 27.165215 -26.375946
v  -26.241716 33.079048 -26.375946
v  -22.299070 27.165215 26.848145
v  93.019814 0.553164 35.718842
v  -66.652489 0.553164 35.718842
v  -66.652489 0.553164 -35.246643
v  93.019814 0.553164 -35.246643
v  93.019814 0.553164 35.718842
v  -66.652489 0.553164 -35.246643
v  -31.169754 18.294529 -35.246643
v  -31.169754 18.294529 35.718842
v  -26.241716 33.079048 35.718842
v  -26.241716 33.079048 -35.246643
v  -31.169754 18.294529 -35.246643
v  -26.241716 33.079048 35.718842
v  -31.169754 18.294529 -35.246643
v  -37.083183 0.553164 -35.246643
v  -66.652489 0.553164 -35.246643
v  -66.652489 0.553164 -35.246643
v  -66.652489 0.553164 35.718842
v  -31.169754 18.294529 35.718842
v  -31.169754 18.294529 -35.246643
v  -66.652489 0.553164 -35.246643
v  -31.169754 18.294529 35.718842
v  57.537083 0.553164 -35.246643
v  57.537083 18.294529 -35.246643
v  93.019814 0.553164 -35.246643
v  28.659716 50.379967 -35.246643
v  28.659716 50.379967 35.718842
v  57.537083 18.294529 35.718842
v  57.537083 18.294529 -35.246643
v  28.659716 50.379967 -35.246643
v  57.537083 18.294529 35.718842
v  57.537083 18.294529 -35.246643
v  57.537083 18.294529 35.718842
v  93.019814 0.553164 35.718842
v  93.019814 0.553164 -35.246643
v  57.537083 18.294529 -35.246643
v  93.019814 0.553164 35.718842
v  17.619005 62.647949 26.848145
v  28.659716 50.379967 26.848145
v  13.183662 27.165215 26.848145
v  -22.299070 44.906578 26.848145
v  17.619005 62.647949 26.848145
v  13.183662 27.165215 26.848145
v  -26.241716 33.079048 26.848145
v  -22.299070 44.906578 26.848145
v  13.183662 27.165215 26.848145
v  -22.299070 27.165215 26.848145
v  -26.241716 33.079048 26.848145
v  13.183662 27.165215 26.848145
v  -22.299070 44.906578 -26.375946
v  -26.241716 33.079048 -26.375946
v  -22.299070 27.165215 -26.375946
v  17.619005 62.647949 -26.375946
v  -22.299070 44.906578 -26.375946
v  -22.299070 27.165215 -26.375946
v  28.659716 50.379967 -26.375946
v  17.619005 62.647949 -26.375946
v  -22.299070 27.165215 -26.375946
v  13.183662 27.165215 -26.375946
v  28.659716 50.379967 -26.375946
v  -22.299070 27.165215 -26.375946
v  13.183662 27.165215 -26.375946
v  13.183662 27.165215 26.848145
v  28.659716 50.379967 26.848145
v  28.659716 50.379967 -26.375946
v  13.183662 27.165215 -26.375946
v  28.659716 50.379967 26.848145
v  -26.241716 33.079048 -26.375946
v  -26.241716 33.079048 26.848145
v  -22.299070 27.165215 26.848145
v  57.537083 0.553164 35.718842
v  93.019814 0.553164 35.718842
v  57.537083 18.294529 35.718842
v  -22.299070 27.165215 -26.375946
v  -22.299070 27.165215 26.848145
v  13.183662 27.165215 26.848145
v  13.183662 27.165215 -26.375946
v  -22.299070 27.165215 -26.375946
v  13.183662 27.165215 26.848145
v  17.619005 62.647949 -35.246643
v  -22.299070 44.906578 -35.246643
v  -22.299070 44.906578 -26.375946
v  17.619005 62.647949 -26.375946
v  17.619005 62.647949 -35.246643
v  -22.299070 44.906578 -26.375946
v  17.619005 62.647949 26.848145
v  -22.299070 44.906578 26.848145
v  -22.299070 44.906578 35.718842
v  17.619005 62.647949 35.718842
v  17.619005 62.647949 26.848145
v  -22.299070 44.906578 35.718842
v  17.619005 62.647949 35.718842
v  28.659716 50.379967 35.718842
v  28.659716 50.379967 26.848145
v  17.619005 62.647949 26.848145
v  17.619005 62.647949 35.718842
v  28.659716 50.379967 26.848145
v  17.619005 62.647949 -35.246643
v  17.619005 62.647949 -26.375946
v  28.659716 50.379967 -26.375946
v  28.659716 50.379967 -35.246643
v  17.619005 62.647949 -35.246643
v  28.659716 50.379967 -26.375946
v  57.537083 18.294529 -35.246643
v  57.537083 0.553164 -35.246643
v  -37.083183 0.553164 -35.246643
v  17.619005 62.647949 -35.246643
v  57.537083 18.294529 -35.246643
v  -37.083183 0.553164 -35.246643
v  -22.299070 44.906578 -35.246643
v  17.619005 62.647949 -35.246643
v  -37.083183 0.553164 -35.246643
v  -22.299070 44.906578 26.848145
v  -26.241716 33.079048 26.848145
v  -26.241716 33.079048 35.718842
v  -22.299070 44.906578 35.718842
v  -22.299070 44.906578 26.848145
v  -26.241716 33.079048 35.718842
v  -22.299070 44.906578 -35.246643
v  -26.241716 33.079048 -35.246643
v  -26.241716 33.079048 -26.375946
v  -22.299070 44.906578 -26.375946
v  -22.299070 44.906578 -35.246643
v  -26.241716 33.079048 -26.375946
v  -66.652489 0.553164 35.718842
v  -48.911121 0.553164 35.718842
v  -48.911121 9.423847 35.718842
v  -22.299070 44.906578 35.718842
v  -31.169754 18.294529 35.718842
v  -48.911121 9.423847 35.718842
v  -37.083183 0.553164 35.718842
v  -22.299070 44.906578 35.718842
v  -48.911121 9.423847 35.718842
v  -48.911121 0.553164 35.718842
v  -37.083183 0.553164 35.718842
v  -48.911121 9.423847 35.718842
v  57.537083 18.294529 35.718842
v  17.619005 62.647949 35.718842
v  -22.299070 44.906578 35.718842
v  57.537083 0.553164 35.718842
v  57.537083 18.294529 35.718842
v  -22.299070 44.906578 35.718842
v  -37.083183 0.553164 35.718842
v  57.537083 0.553164 35.718842
v  -22.299070 44.906578 35.718842
# 147 vertices

vt  0.310256 -0.062500 0.000000
vt  0.260282 -0.062500 0.000000
vt  0.310256 0.312500 0.000000
vt  -0.673992 0.015625 0.000000
vt  0.300287 0.015625 0.000000
vt  0.300287 0.515625 0.000000
vt  -0.673992 0.515625 0.000000
vt  -0.673992 0.015625 0.000000
vt  0.300287 0.515625 0.000000
vt  -0.232606 0.515625 0.000000
vt  -0.232606 0.015625 0.000000
vt  -0.150452 0.015625 0.000000
vt  -0.150452 0.515625 0.000000
vt  -0.232606 0.515625 0.000000
vt  -0.150452 0.015625 0.000000
vt  -0.184134 0.142394 0.000000
vt  -0.313220 0.168812 0.000000
vt  -0.417388 -0.011612 0.000000
vt  -0.355662 0.515625 0.000000
vt  -0.355662 0.015625 0.000000
vt  -0.230662 0.015625 0.000000
vt  -0.230662 0.515625 0.000000
vt  -0.355662 0.515625 0.000000
vt  -0.230662 0.015625 0.000000
vt  0.020112 0.746160 0.000000
vt  0.128366 0.683660 0.000000
vt  0.145112 0.962667 0.000000
vt  0.293274 0.515625 0.000000
vt  0.293274 0.015625 0.000000
vt  0.519338 0.015625 0.000000
vt  0.519338 0.515625 0.000000
vt  0.293274 0.515625 0.000000
vt  0.519338 0.015625 0.000000
vt  -0.019985 0.515625 0.000000
vt  -0.019985 0.015625 0.000000
vt  -0.173992 0.015625 0.000000
vt  -0.173992 0.515625 0.000000
vt  -0.019985 0.515625 0.000000
vt  -0.173992 0.015625 0.000000
vt  0.391446 -0.009495 0.000000
vt  0.415596 -0.123246 0.000000
vt  0.239383 -0.210377 0.000000
vt  0.085377 0.022877 0.000000
vt  0.391446 -0.009495 0.000000
vt  0.239383 -0.210377 0.000000
vt  0.019653 -0.035403 0.000000
vt  0.085377 0.022877 0.000000
vt  0.239383 -0.210377 0.000000
vt  0.022877 -0.085377 0.000000
vt  0.019653 -0.035403 0.000000
vt  0.239383 -0.210377 0.000000
vt  0.193630 -0.039623 0.000000
vt  0.176020 -0.125681 0.000000
vt  0.131130 -0.147877 0.000000
vt  0.012560 0.209255 0.000000
vt  0.193630 -0.039623 0.000000
vt  0.131130 -0.147877 0.000000
vt  -0.098026 0.173293 0.000000
vt  0.012560 0.209255 0.000000
vt  0.131130 -0.147877 0.000000
vt  -0.085377 -0.022877 0.000000
vt  -0.098026 0.173293 0.000000
vt  0.131130 -0.147877 0.000000
vt  -0.022877 -0.062500 0.000000
vt  -0.022877 0.312500 0.000000
vt  0.173293 0.312500 0.000000
vt  0.173293 -0.062500 0.000000
vt  -0.022877 -0.062500 0.000000
vt  0.173293 0.312500 0.000000
vt  0.260282 -0.062500 0.000000
vt  0.260282 0.312500 0.000000
vt  0.310256 0.312500 0.000000
vt  0.886138 0.246160 0.000000
vt  1.011138 0.462667 0.000000
vt  0.777885 0.308660 0.000000
vt  0.062500 -0.062500 0.000000
vt  0.062500 0.312500 0.000000
vt  0.312500 0.312500 0.000000
vt  0.312500 -0.062500 0.000000
vt  0.062500 -0.062500 0.000000
vt  0.312500 0.312500 0.000000
vt  0.283841 0.515625 0.000000
vt  0.102771 0.515625 0.000000
vt  0.102771 0.453125 0.000000
vt  0.283841 0.453125 0.000000
vt  0.283841 0.515625 0.000000
vt  0.102771 0.453125 0.000000
vt  0.283841 0.078125 0.000000
vt  0.102771 0.078125 0.000000
vt  0.102771 0.015625 0.000000
vt  0.283841 0.015625 0.000000
vt  0.283841 0.078125 0.000000
vt  0.102771 0.015625 0.000000
vt  0.206838 0.015625 0.000000
vt  0.293274 0.015625 0.000000
vt  0.293274 0.078125 0.000000
vt  0.206838 0.078125 0.000000
vt  0.206838 0.015625 0.000000
vt  0.293274 0.078125 0.000000
vt  0.206838 0.515625 0.000000
vt  0.206838 0.453125 0.000000
vt  0.293274 0.453125 0.000000
vt  0.293274 0.515625 0.000000
vt  0.206838 0.515625 0.000000
vt  0.293274 0.453125 0.000000
vt  0.128366 0.683660 0.000000
vt  0.020112 0.746160 0.000000
vt  -0.313220 0.168812 0.000000
vt  0.258373 0.283841 0.000000
vt  0.128366 0.683660 0.000000
vt  -0.313220 0.168812 0.000000
vt  0.009495 0.102771 0.000000
vt  0.258373 0.283841 0.000000
vt  -0.313220 0.168812 0.000000
vt  -0.084729 0.078125 0.000000
vt  -0.150452 0.078125 0.000000
vt  -0.150452 0.015625 0.000000
vt  -0.084729 0.015625 0.000000
vt  -0.084729 0.078125 0.000000
vt  -0.150452 0.015625 0.000000
vt  -0.084729 0.515625 0.000000
vt  -0.150452 0.515625 0.000000
vt  -0.150452 0.453125 0.000000
vt  -0.084729 0.453125 0.000000
vt  -0.084729 0.515625 0.000000
vt  -0.150452 0.453125 0.000000
vt  0.448638 -0.511612 0.000000
vt  0.511138 -0.403359 0.000000
vt  0.457011 -0.372109 0.000000
vt  0.334255 -0.084729 0.000000
vt  0.465385 -0.232605 0.000000
vt  0.457011 -0.372109 0.000000
vt  0.552806 -0.331188 0.000000
vt  0.334255 -0.084729 0.000000
vt  0.457011 -0.372109 0.000000
vt  0.511138 -0.403359 0.000000
vt  0.552806 -0.331188 0.000000
vt  0.457011 -0.372109 0.000000
vt  0.777885 0.308660 0.000000
vt  0.366627 0.221341 0.000000
vt  0.334255 -0.084729 0.000000
vt  0.886138 0.246160 0.000000
vt  0.777885 0.308660 0.000000
vt  0.334255 -0.084729 0.000000
vt  0.552806 -0.331188 0.000000
vt  0.886138 0.246160 0.000000
vt  0.334255 -0.084729 0.000000
# 147 texture vertices

vn  -0.230650 -0.153770 -0.000000
vn  -0.230650 -0.153770 -0.000000
vn  -0.230650 -0.153770 -0.000000
vn  0.000000 -0.277209 -0.000000
vn  0.000000 -0.277209 -0.000000
vn  0.000000 -0.277209 -0.000000
vn  0.000000 -0.277209 -0.000000
vn  0.000000 -0.277209 -0.000000
vn  0.000000 -0.277209 -0.000000
vn  -0.262984 0.087659 -0.000000
vn  -0.262984 0.087659 -0.000000
vn  -0.262984 0.087659 -0.000000
vn  -0.262984 0.087659 -0.000000
vn  -0.262984 0.087659 -0.000000
vn  -0.262984 0.087659 -0.000000
vn  0.000000 0.000000 -0.277209
vn  0.000000 0.000000 -0.277209
vn  0.000000 0.000000 -0.277209
vn  -0.123972 0.247943 -0.000000
vn  -0.123972 0.247943 -0.000000
vn  -0.123972 0.247943 -0.000000
vn  -0.123972 0.247943 -0.000000
vn  -0.123972 0.247943 -0.000000
vn  -0.123972 0.247943 -0.000000
vn  0.000000 0.000000 -0.277209
vn  0.000000 0.000000 -0.277209
vn  0.000000 0.000000 -0.277209
vn  0.206046 0.185445 -0.000000
vn  0.206046 0.185445 -0.000000
vn  0.206046 0.185445 -0.000000
vn  0.206046 0.185445 -0.000000
vn  0.206046 0.185445 -0.000000
vn  0.206046 0.185445 -0.000000
vn  0.123972 0.247943 -0.000000
vn  0.123972 0.247943 -0.000000
vn  0.123972 0.247943 -0.000000
vn  0.123972 0.247943 -0.000000
vn  0.123972 0.247943 -0.000000
vn  0.123972 0.247943 -0.000000
vn  0.000000 0.000000 0.277209
vn  0.000000 0.000000 0.277209
vn  0.000000 0.000000 0.277209
vn  0.000000 0.000000 0.277209
vn  0.000000 0.000000 0.277209
vn  0.000000 0.000000 0.277209
vn  0.000000 0.000000 0.277209
vn  0.000000 0.000000 0.277209
vn  0.000000 0.000000 0.277209
vn  0.000000 0.000000 0.277209
vn  0.000000 0.000000 0.277209
vn  0.000000 0.000000 0.277209
vn  0.000000 0.000000 -0.277209
vn  0.000000 0.000000 -0.277209
vn  0.000000 0.000000 -0.277209
vn  0.000000 0.000000 -0.277209
vn  0.000000 0.000000 -0.277209
vn  0.000000 0.000000 -0.277209
vn  0.000000 0.000000 -0.277209
vn  0.000000 0.000000 -0.277209
vn  0.000000 0.000000 -0.277209
vn  0.000000 0.000000 -0.277209
vn  0.000000 0.000000 -0.277209
vn  0.000000 0.000000 -0.277209
vn  0.230654 -0.153765 -0.000000
vn  0.230654 -0.153765 -0.000000
vn  0.230654 -0.153765 -0.000000
vn  0.230654 -0.153765 -0.000000
vn  0.230654 -0.153765 -0.000000
vn  0.230654 -0.153765 -0.000000
vn  -0.230650 -0.153770 -0.000000
vn  -0.230650 -0.153770 -0.000000
vn  -0.230650 -0.153770 -0.000000
vn  0.000000 0.000000 0.277209
vn  0.000000 0.000000 0.277209
vn  0.000000 0.000000 0.277209
vn  0.000000 -0.277209 -0.000000
vn  0.000000 -0.277209 -0.000000
vn  0.000000 -0.277209 -0.000000
vn  0.000000 -0.277209 -0.000000
vn  0.000000 -0.277209 -0.000000
vn  0.000000 -0.277209 -0.000000
vn  -0.112585 0.253317 -0.000000
vn  -0.112585 0.253317 -0.000000
vn  -0.112585 0.253317 -0.000000
vn  -0.112585 0.253317 -0.000000
vn  -0.112585 0.253317 -0.000000
vn  -0.112585 0.253317 -0.000000
vn  -0.112585 0.253317 -0.000000
vn  -0.112585 0.253317 -0.000000
vn  -0.112585 0.253317 -0.000000
vn  -0.112585 0.253317 -0.000000
vn  -0.112585 0.253317 -0.000000
vn  -0.112585 0.253317 -0.000000
vn  0.206052 0.185439 -0.000000
vn  0.206052 0.185439 -0.000000
vn  0.206052 0.185439 -0.000000
vn  0.206052 0.185439 -0.000000
vn  0.206052 0.185439 -0.000000
vn  0.206052 0.185439 -0.000000
vn  0.206052 0.185439 -0.000000
vn  0.206052 0.185439 -0.000000
vn  0.206052 0.185439 -0.000000
vn  0.206052 0.185439 -0.000000
vn  0.206052 0.185439 -0.000000
vn  0.206052 0.185439 -0.000000
vn  0.000000 0.000000 -0.277209
vn  0.000000 0.000000 -0.277209
vn  0.000000 0.000000 -0.277209
vn  0.000000 0.000000 -0.277209
vn  0.000000 0.000000 -0.277209
vn  0.000000 0.000000 -0.277209
vn  0.000000 0.000000 -0.277209
vn  0.000000 0.000000 -0.277209
vn  0.000000 0.000000 -0.277209
vn  -0.262983 0.087664 -0.000000
vn  -0.262983 0.087664 -0.000000
vn  -0.262983 0.087664 -0.000000
vn  -0.262983 0.087664 -0.000000
vn  -0.262983 0.087664 -0.000000
vn  -0.262983 0.087664 -0.000000
vn  -0.262983 0.087664 -0.000000
vn  -0.262983 0.087664 -0.000000
vn  -0.262983 0.087664 -0.000000
vn  -0.262983 0.087664 -0.000000
vn  -0.262983 0.087664 -0.000000
vn  -0.262983 0.087664 -0.000000
vn  0.000000 0.000000 0.277209
vn  0.000000 0.000000 0.277209
vn  0.000000 0.000000 0.277209
vn  0.000000 0.000000 0.277209
vn  0.000000 0.000000 0.277209
vn  0.000000 0.000000 0.277209
vn  0.000000 0.000000 0.277209
vn  0.000000 0.000000 0.277209
vn  0.000000 0.000000 0.277209
vn  0.000000 0.000000 0.277209
vn  0.000000 0.000000 0.277209
vn  0.000000 0.000000 0.277209
vn  0.000000 0.000000 0.277209
vn  0.000000 0.000000 0.277209
vn  0.000000 0.000000 0.277209
vn  0.000000 0.000000 0.277209
vn  0.000000 0.000000 0.277209
vn  0.000000 0.000000 0.277209
vn  0.000000 0.000000 0.277209
vn  0.000000 0.000000 0.277209
vn  0.000000 0.000000 0.277209
# 147 vertex normals

g objStaticMeshActor1
s 0
f 2/2/2 1/1/1 3/3/3
f 4/4/4 5/5/5 6/6/6
f 7/7/7 8/8/8 9/9/9
f 10/10/10 11/11/11 12/12/12
f 13/13/13 14/14/14 15/15/15
f 16/16/16 17/17/17 18/18/18
f 19/19/19 20/20/20 21/21/21
f 22/22/22 23/23/23 24/24/24
f 25/25/25 26/26/26 27/27/27
f 28/28/28 29/29/29 30/30/30
f 31/31/31 32/32/32 33/33/33
f 34/34/34 35/35/35 36/36/36
f 37/37/37 38/38/38 39/39/39
f 41/41/41 40/40/40 42/42/42
f 44/44/44 43/43/43 45/45/45
f 47/47/47 46/46/46 48/48/48
f 50/50/50 49/49/49 51/51/51
f 53/53/53 52/52/52 54/54/54
f 56/56/56 55/55/55 57/57/57
f 59/59/59 58/58/58 60/60/60
f 62/62/62 61/61/61 63/63/63
f 65/65/65 64/64/64 66/66/66
f 68/68/68 67/67/67 69/69/69
f 71/71/71 70/70/70 72/72/72
f 73/73/73 74/74/74 75/75/75
f 77/77/77 76/76/76 78/78/78
f 80/80/80 79/79/79 81/81/81
f 82/82/82 83/83/83 84/84/84
f 85/85/85 86/86/86 87/87/87
f 88/88/88 89/89/89 90/90/90
f 91/91/91 92/92/92 93/93/93
f 94/94/94 95/95/95 96/96/96
f 97/97/97 98/98/98 99/99/99
f 100/100/100 101/101/101 102/102/102
f 103/103/103 104/104/104 105/105/105
f 106/106/106 107/107/107 108/108/108
f 109/109/109 110/110/110 111/111/111
f 112/112/112 113/113/113 114/114/114
f 115/115/115 116/116/116 117/117/117
f 118/118/118 119/119/119 120/120/120
f 121/121/121 122/122/122 123/123/123
f 124/124/124 125/125/125 126/126/126
f 127/127/127 128/128/128 129/129/129
f 131/131/131 130/130/130 132/132/132
f 133/133/133 134/134/134 135/135/135
f 136/136/136 137/137/137 138/138/138
f 139/139/139 140/140/140 141/141/141
f 142/142/142 143/143/143 144/144/144
f 145/145/145 146/146/146 147/147/147
# 49 faces

g
